<svg width="33" height="32" viewBox="0 0 33 32" fill="none" xmlns="http://www.w3.org/2000/svg">
<path d="M32.5 25.0093C32.5 27.7793 30.2545 30.0248 27.4844 30.0248C24.7144 30.0248 22.4689 27.7793 22.4689 25.0093C22.4689 22.2392 24.7144 19.9937 27.4844 19.9937C30.2545 19.9937 32.5 22.2392 32.5 25.0093Z" fill="black"/>
<path fill-rule="evenodd" clip-rule="evenodd" d="M10.4357 25.9881L8.46759 25.5988C8.50499 25.4097 8.52492 25.2128 8.52492 25.0093C8.52492 24.8057 8.50499 24.6088 8.46759 24.4198L10.4357 24.0304C10.4983 24.347 10.5311 24.6743 10.5311 25.0093C10.5311 25.3442 10.4983 25.6715 10.4357 25.9881ZM9.68635 22.2225L8.01924 23.3386C7.79895 23.0096 7.51524 22.7259 7.1862 22.5056L8.3023 20.8385C8.84926 21.2047 9.32017 21.6756 9.68635 22.2225ZM6.49442 20.0891L6.10508 22.0572C5.91603 22.0198 5.71912 21.9999 5.51557 21.9999C5.31203 21.9999 5.11512 22.0198 4.92607 22.0572L4.53672 20.0891C4.85331 20.0265 5.18061 19.9937 5.51557 19.9937C5.85054 19.9937 6.17784 20.0265 6.49442 20.0891ZM2.72884 20.8385L3.84495 22.5056C3.51591 22.7259 3.2322 23.0096 3.01191 23.3386L1.3448 22.2225C1.71097 21.6756 2.18189 21.2047 2.72884 20.8385ZM0.595467 24.0304C0.532837 24.347 0.5 24.6743 0.5 25.0093C0.5 25.3442 0.532837 25.6715 0.595467 25.9881L2.56355 25.5988C2.52615 25.4097 2.50623 25.2128 2.50623 25.0093C2.50623 24.8057 2.52615 24.6088 2.56355 24.4198L0.595467 24.0304ZM1.3448 27.796L3.01191 26.6799C3.2322 27.0089 3.51591 27.2926 3.84495 27.5129L2.72884 29.18C2.18189 28.8139 1.71097 28.3429 1.3448 27.796ZM4.53672 29.9294L4.92607 27.9613C5.11512 27.9987 5.31203 28.0186 5.51557 28.0186C5.71912 28.0186 5.91603 27.9987 6.10508 27.9613L6.49442 29.9294C6.17784 29.992 5.85054 30.0248 5.51557 30.0248C5.18061 30.0248 4.85331 29.992 4.53672 29.9294ZM8.3023 29.18L7.1862 27.5129C7.51524 27.2926 7.79895 27.0089 8.01924 26.6799L9.68635 27.796C9.32017 28.3429 8.84926 28.8139 8.3023 29.18Z" fill="black"/>
<path fill-rule="evenodd" clip-rule="evenodd" d="M7.52106 15.9828C7.52106 15.982 7.52106 15.9811 5.51483 15.9811C3.50861 15.9811 3.50861 15.9802 3.50861 15.9792L3.50861 15.9769L3.50862 15.9717L3.5087 15.9578L3.50916 15.9169C3.50965 15.8839 3.51056 15.8396 3.51223 15.7846C3.51559 15.6748 3.52204 15.5222 3.53444 15.3328C3.5592 14.9547 3.6079 14.4265 3.70403 13.7973C3.89475 12.5489 4.27994 10.851 5.07032 9.12651C5.86236 7.39844 7.08944 5.58421 8.98991 4.20206C10.9119 2.80428 13.4016 1.9375 16.5491 1.9375C19.6966 1.9375 22.1863 2.80428 24.1083 4.20206C26.0088 5.58421 27.2358 7.39844 28.0279 9.12651C28.8183 10.851 29.2034 12.5489 29.3942 13.7973C29.4903 14.4265 29.539 14.9547 29.5638 15.3328C29.5762 15.5222 29.5826 15.6748 29.586 15.7846C29.5876 15.8396 29.5886 15.8839 29.589 15.9169L29.5895 15.9578L29.5896 15.9717L29.5896 15.9769L29.5896 15.9792C29.5896 15.9802 29.5896 15.9811 27.5834 15.9811C25.5771 15.9811 25.5771 15.982 25.5771 15.9828L25.5771 15.9842L25.577 15.9762C25.5768 15.9636 25.5764 15.9404 25.5754 15.9072C25.5733 15.8407 25.569 15.7347 25.5599 15.595C25.5415 15.3147 25.504 14.9025 25.4277 14.4033C25.2736 13.3946 24.9692 12.0832 24.3803 10.7983C23.793 9.51704 22.9512 8.32193 21.7483 7.44708C20.5668 6.58785 18.9188 5.94996 16.5491 5.94996C14.1794 5.94996 12.5314 6.58785 11.3499 7.44708C10.147 8.32193 9.30516 9.51704 8.71791 10.7983C8.12901 12.0832 7.82456 13.3946 7.67046 14.4033C7.59418 14.9025 7.55668 15.3147 7.53833 15.595C7.52918 15.7347 7.52485 15.8407 7.52282 15.9072C7.52181 15.9404 7.52137 15.9636 7.52118 15.9762L7.52106 15.9828ZM7.52106 15.9861L7.52106 15.9828L7.52106 15.9842L7.52106 15.9861ZM7.52105 15.987L7.52106 15.9861L7.52105 15.987Z" fill="black"/>
</svg>
