<svg width="50" height="50" viewBox="0 0 50 50" fill="none" xmlns="http://www.w3.org/2000/svg">
<path d="M25 0C11.215 0 0 11.2147 0 24.9994C0 38.7841 11.215 49.9988 25 49.9988C38.785 49.9988 50 38.7841 50 24.9994C50 11.2147 38.785 0 25 0ZM25 48.3322C12.1339 48.3322 1.66666 37.8652 1.66666 24.9994C1.66666 12.1336 12.1339 1.66663 25 1.66663C37.8661 1.66663 48.3333 12.1336 48.3333 24.9994C48.3333 37.8652 37.8661 48.3322 25 48.3322Z" fill="#7A0FC8"/>
<path d="M25.5555 3.33334C13.6083 3.33334 3.88886 13.0526 3.88886 24.9995C3.88886 36.9464 13.6083 46.6657 25.5555 46.6657C37.5028 46.6657 47.2222 36.9464 47.2222 24.9995C47.2222 13.0526 37.5028 3.33334 25.5555 3.33334ZM25.5555 44.999C14.5272 44.999 5.55555 36.0276 5.55555 24.9995C5.55555 13.9714 14.5272 4.99997 25.5555 4.99997C36.5839 4.99997 45.5555 13.9714 45.5555 24.9995C45.5555 36.0276 36.5839 44.999 25.5555 44.999Z" fill="#7A0FC8"/>
<path d="M24.4444 6.66645C14.3355 6.66645 6.11112 14.8907 6.11112 24.9994C6.11112 35.108 14.3355 43.3323 24.4444 43.3323C34.5533 43.3323 42.7778 35.108 42.7778 24.9994C42.7778 14.8907 34.5533 6.66645 24.4444 6.66645ZM24.4444 41.6656C15.2544 41.6656 7.77778 34.1891 7.77778 24.9994C7.77778 15.8096 15.2544 8.33308 24.4444 8.33308C33.6344 8.33308 41.1111 15.8096 41.1111 24.9994C41.1111 34.1891 33.6344 41.6656 24.4444 41.6656Z" fill="#7A0FC8"/>
<path d="M25.5556 9.9999C17.2845 9.9999 10.5556 16.7286 10.5556 24.9996C10.5556 33.2705 17.2845 39.9992 25.5556 39.9992C33.8267 39.9992 40.5556 33.2705 40.5556 24.9996C40.5556 16.7286 33.8267 9.9999 25.5556 9.9999ZM25.5556 38.3326C18.2039 38.3326 12.2222 32.3511 12.2222 24.9996C12.2222 17.6481 18.2039 11.6665 25.5556 11.6665C32.9072 11.6665 38.8889 17.6481 38.8889 24.9996C38.8889 32.3511 32.9072 38.3326 25.5556 38.3326Z" fill="#7A0FC8"/>
<path d="M24.4444 13.333C18.0111 13.333 12.7778 18.5662 12.7778 24.9994C12.7778 31.4326 18.0111 36.6658 24.4444 36.6658C30.8778 36.6658 36.1111 31.4326 36.1111 24.9994C36.1111 18.5662 30.8778 13.333 24.4444 13.333ZM24.4444 34.9992C18.9305 34.9992 14.4445 30.5132 14.4445 24.9994C14.4445 19.4857 18.9305 14.9996 24.4444 14.9996C29.9583 14.9996 34.4444 19.4857 34.4444 24.9994C34.4444 30.5132 29.9583 34.9992 24.4444 34.9992Z" fill="#7A0FC8"/>
<path d="M25.5556 16.6664C20.9606 16.6664 17.2222 20.4046 17.2222 24.9995C17.2222 29.5944 20.9606 33.3326 25.5556 33.3326C30.1506 33.3326 33.8889 29.5944 33.8889 24.9995C33.8889 20.4046 30.1506 16.6664 25.5556 16.6664ZM25.5556 31.666C21.8795 31.666 18.8889 28.6755 18.8889 24.9995C18.8889 21.3235 21.8795 18.333 25.5556 18.333C29.2317 18.333 32.2222 21.3235 32.2222 24.9995C32.2222 28.6755 29.2317 31.666 25.5556 31.666Z" fill="#7A0FC8"/>
<path d="M24.4444 19.9995C21.6878 19.9995 19.4444 22.2428 19.4444 24.9994C19.4444 27.756 21.6878 29.9992 24.4444 29.9992C27.2011 29.9992 29.4444 27.756 29.4444 24.9994C29.4444 22.2428 27.2011 19.9995 24.4444 19.9995ZM24.4444 28.3326C22.6061 28.3326 21.1111 26.8376 21.1111 24.9994C21.1111 23.1611 22.6061 21.6661 24.4444 21.6661C26.2828 21.6661 27.7778 23.1611 27.7778 24.9994C27.7778 26.8376 26.2828 28.3326 24.4444 28.3326Z" fill="#7A0FC8"/>
<path d="M25 50C11.215 50 0 38.6873 0 24.7823C0 24.7823 4.4611 28.9353 8.01887 30.3348C16.8935 33.8257 22.3887 23.3595 31.8396 24.7823C36.3165 25.4563 38.3293 29.1555 42.8066 28.484C45.9424 28.0136 50 24.7823 50 24.7823C50 38.6873 38.785 50 25 50Z" fill="url(#paint0_linear_1_1175)"/>
<defs>
<linearGradient id="paint0_linear_1_1175" x1="21.6087" y1="24.1256" x2="38.2047" y2="49.8435" gradientUnits="userSpaceOnUse">
<stop stop-color="#AE3EFF"/>
<stop offset="1" stop-color="#3E006A"/>
</linearGradient>
</defs>
</svg>
