<svg width="71" height="49" viewBox="0 0 71 49" fill="none" xmlns="http://www.w3.org/2000/svg">
<path d="M23.6361 32.0778C26.5011 32.0778 28.4067 30.1705 28.4067 27.3361C28.4067 24.5017 26.4878 22.5944 23.6095 22.5944H20.7312V32.0778H23.6361ZM23.5695 23.4685C25.9281 23.4685 27.4206 24.9652 27.4206 27.3361C27.4206 29.6937 25.9281 31.2036 23.5962 31.2036H21.6906V23.4685H23.5695Z" fill="#F5F6F7"/>
<path d="M36.8957 32.0778V31.2036H32.1385V27.7467H36.4427V26.8858H32.1385V23.4685H36.8824V22.5944H31.1791V32.0778H36.8957Z" fill="#F5F6F7"/>
<path d="M39.3103 25.0579C39.3103 26.356 40.0965 27.2036 41.5889 27.5613L43.2013 27.9586C44.2274 28.197 44.7071 28.7533 44.7071 29.601C44.7071 30.6871 43.8143 31.3626 42.4151 31.3626C41.1092 31.3626 40.2297 30.7136 40.1764 29.7202H39.1903C39.3103 31.2699 40.5629 32.2368 42.4151 32.2368C44.3873 32.2368 45.6665 31.1904 45.6665 29.548C45.6665 28.2632 44.8937 27.4156 43.4012 27.0579L41.7622 26.6606C40.7627 26.4089 40.2697 25.8791 40.2697 25.0447C40.2697 23.9719 41.1492 23.2831 42.4951 23.2831C43.6944 23.2831 44.4273 23.8924 44.5339 24.9652H45.5066C45.36 23.3758 44.2274 22.4222 42.5084 22.4222C40.5895 22.4222 39.3103 23.4685 39.3103 25.0579Z" fill="#F5F6F7"/>
<path d="M49.3907 22.5944H48.4313V32.0778H49.3907V22.5944Z" fill="#F5F6F7"/>
<path d="M56.7476 23.3361C58.1468 23.3361 59.2662 23.9983 59.6659 25.2964H60.7053C60.3322 23.5745 58.7731 22.4354 56.761 22.4354C54.0292 22.4354 52.1637 24.4752 52.1637 27.3758C52.1637 30.303 54.0292 32.2368 56.7343 32.2368C58.2801 32.2368 59.4794 31.5215 59.9857 30.5811L60.079 32.0911H60.8386V26.952H56.4811V27.7997H59.9324V28.2897C59.9324 30.5679 58.3733 31.3361 56.7743 31.3361C54.6289 31.3361 53.1631 29.8394 53.1631 27.3758C53.1631 24.952 54.5489 23.3361 56.7476 23.3361Z" fill="#F5F6F7"/>
<path d="M64.7429 32.0778V24.1838L70.0065 32.0778H70.9526V22.5944H70.0065V30.4884L64.7563 22.5944H63.7835V32.0778H64.7429Z" fill="#F5F6F7"/>
<path d="M20.7828 41.8212C20.7828 43.1192 21.569 43.9669 23.0615 44.3245L24.6739 44.7218C25.6999 44.9603 26.1796 45.5166 26.1796 46.3642C26.1796 47.4503 25.2868 48.1258 23.8876 48.1258C22.5817 48.1258 21.7023 47.4768 21.649 46.4834H20.6629C20.7828 48.0331 22.0354 49 23.8876 49C25.8598 49 27.1391 47.9536 27.1391 46.3113C27.1391 45.0265 26.3662 44.1788 24.8737 43.8212L23.2347 43.4238C22.2353 43.1722 21.7422 42.6424 21.7422 41.8079C21.7422 40.7351 22.6217 40.0464 23.9676 40.0464C25.1669 40.0464 25.8998 40.6556 26.0064 41.7285H26.9792C26.8326 40.1391 25.6999 39.1854 23.9809 39.1854C22.0621 39.1854 20.7828 40.2318 20.7828 41.8212Z" fill="#F5F6F7"/>
<path d="M28.7743 40.2318H31.7059V48.8411H32.6653V40.2318H35.6102V39.3576H28.7743V40.2318Z" fill="#F5F6F7"/>
<path d="M37.9037 45.543C37.9037 47.702 39.2362 49 41.4483 49C43.6203 49 44.9529 47.6887 44.9529 45.543V39.3576H43.9935V45.5033C43.9935 47.1457 43.074 48.0728 41.4483 48.0728C39.7826 48.0728 38.8631 47.1722 38.8631 45.5033V39.3576H37.9037V45.543Z" fill="#F5F6F7"/>
<path d="M51.154 48.8411C54.019 48.8411 55.9246 46.9338 55.9246 44.0993C55.9246 41.2649 54.0057 39.3576 51.1274 39.3576H48.2491V48.8411H51.154ZM51.0874 40.2318C53.446 40.2318 54.9385 41.7285 54.9385 44.0993C54.9385 46.457 53.446 47.9669 51.1141 47.9669H49.2085V40.2318H51.0874Z" fill="#F5F6F7"/>
<path d="M59.6564 39.3576H58.697V48.8411H59.6564V39.3576Z" fill="#F5F6F7"/>
<path d="M29.7908 18.8082C34.3875 18.8082 37.8164 16.1319 38.4624 12.0805H34.2881C33.7912 13.8729 32.1264 14.9778 29.8654 14.9778C26.9086 14.9778 25.0699 12.8416 25.0699 9.42867C25.0699 5.96658 26.8838 3.8795 29.8654 3.8795C32.0768 3.8795 33.6421 4.91076 34.1887 6.72775H38.4376C37.8661 2.65181 34.5614 0.049107 29.9648 0.049107C24.4736 0.049107 20.8211 3.78129 20.8211 9.45322C20.8211 15.1988 24.2748 18.8082 29.7908 18.8082Z" fill="#F5F6F7"/>
<path d="M45.6765 0.343753H41.6514V18.5136H45.6765V15.0269L48.4097 11.4912L52.4597 18.5136H57.1061L51.0435 8.10276L57.0564 0.343753H52.3107L45.6765 9.03581V0.343753Z" fill="#F5F6F7"/>
<path d="M57.5081 5.62282C57.5081 8.59384 59.1977 10.4354 62.4775 11.0983L65.2852 11.6631C66.5027 11.9086 66.9748 12.4242 66.9748 13.4309C66.9748 14.585 65.8318 15.297 64.018 15.297C62.229 15.297 61.2352 14.5604 61.2352 13.2345H57.2348C57.2348 16.6475 59.8934 18.8328 63.9932 18.8328C68.2171 18.8328 71 16.5493 71 13.0381C71 10.1653 69.4346 8.61839 66.1548 7.95544L63.3968 7.3907C62.1048 7.12061 61.5333 6.58042 61.5333 5.4755C61.5333 4.27236 62.5769 3.53575 64.2168 3.53575C65.7325 3.53575 66.7015 4.32147 66.7015 5.59827H70.7018C70.7018 2.16074 68.2171 0 64.2665 0C60.3158 0 57.5081 2.33261 57.5081 5.62282Z" fill="#F5F6F7"/>
<path d="M17.4897 48.8411V40.9506C17.4897 36.8516 15.7644 34.5972 12.6682 34.5972C10.6829 34.5972 9.33574 35.5963 8.7685 37.4664C8.08309 35.75 6.71228 34.8277 4.84513 34.8277C1.84351 34.8277 4.02952e-07 37.1334 5.56885e-07 40.9506L8.75084e-07 48.8411H17.4897ZM3.35614 41.3861C3.35614 39.8746 3.99428 39.0804 5.22328 39.0804C6.47593 39.0804 7.16134 39.9002 7.16134 41.3861V44.6909H3.35614L3.35614 41.3861ZM10.3757 41.1811C10.3757 39.6696 11.0138 38.8498 12.1955 38.8498C13.4955 38.8498 14.1336 39.644 14.1336 41.1811V44.6909H10.3757V41.1811Z" fill="#F5F6F7"/>
<path d="M0 27.1412L1.67364e-07 31.2914H17.4897V19.6606H13.9445V27.1412L0 27.1412Z" fill="#F5F6F7"/>
<path fill-rule="evenodd" clip-rule="evenodd" d="M2.49853 0C1.11863 0 0 1.11188 0 2.48344V14.9007C0 16.2722 1.11863 17.3841 2.49853 17.3841H14.9912C16.3711 17.3841 17.4897 16.2722 17.4897 14.9007V2.48344C17.4897 1.11188 16.3711 0 14.9912 0H2.49853ZM8.77985 3.72517C11.6448 3.72517 13.617 5.79139 13.617 8.78477C13.617 11.7781 11.6315 13.8576 8.76652 13.8576C5.91486 13.8576 3.95601 11.7914 3.95601 8.79801C3.95601 5.80464 5.92819 3.72517 8.77985 3.72517Z" fill="#635BFF"/>
<path d="M67.0423 42.6324C67.7832 42.6324 68.2933 43.1811 68.2933 43.9759C68.2933 44.7707 67.7798 45.3228 67.0388 45.3228C66.3013 45.3228 65.7947 44.7742 65.7947 43.9794C65.7947 43.1846 66.3048 42.6324 67.0423 42.6324Z" fill="#635BFF"/>
<path fill-rule="evenodd" clip-rule="evenodd" d="M64.9619 39.2695C64.0132 39.2695 63.2441 40.0339 63.2441 40.9768V47.1854C63.2441 48.1284 64.0132 48.8928 64.9619 48.8928H69.1261C70.0748 48.8928 70.8438 48.1284 70.8438 47.1854V40.9768C70.8438 40.0339 70.0748 39.2695 69.1261 39.2695H64.9619ZM64.1811 40.9768C64.1811 40.5482 64.5307 40.2007 64.9619 40.2007H69.1261C69.5573 40.2007 69.9069 40.5482 69.9069 40.9768V47.1854C69.9069 47.614 69.5573 47.9615 69.1261 47.9615H64.9619C64.5307 47.9615 64.1811 47.614 64.1811 47.1854V40.9768Z" fill="#635BFF"/>
</svg>
