<svg width="251" height="118" viewBox="0 0 251 118" fill="none" xmlns="http://www.w3.org/2000/svg">
<path d="M53.3 24.3003L61 41.6003L68.5 24.3003H70.8L61.1 46.8003L53.4 29.5003V57.2003H51.5V24.3003H53.3ZM70.8 32.4003V57.2003H68.9V36.9003L70.8 32.4003Z" fill="black"/>
<path d="M86.6996 40.2003V43.1003H78.3996V54.1003H89.3996V33.8003H78.2996V30.8003H89.3996C89.8996 30.8003 90.2996 31.1003 90.6996 31.8003C90.9996 32.4003 91.1996 33.2003 91.1996 34.2003V53.9003C91.1996 54.8003 90.9996 55.6003 90.6996 56.3003C90.3996 56.9003 89.8996 57.3003 89.3996 57.3003H78.3996C77.8996 57.3003 77.4996 57.0003 77.0996 56.3003C76.7996 55.7003 76.5996 54.9003 76.5996 53.9003V43.5003C76.5996 42.6003 76.7996 41.8003 77.0996 41.1003C77.3996 40.5003 77.8996 40.1003 78.3996 40.1003H86.6996V40.2003Z" fill="black"/>
<path d="M111 43.1003H109.2V33.9003H99.3996V57.2003H97.5996V30.8003H109.3C109.8 30.8003 110.2 31.1003 110.6 31.8003C110.9 32.4003 111.1 33.2003 111.1 34.2003V43.1003H111Z" fill="black"/>
<path d="M126.1 57.2001L118 44.6001V57.2001H116.2V22.1001H118V40.3001L128.9 57.1001H126.1V57.2001ZM120.7 39.1001L125.4 30.8001H127.9L122 41.2001L120.7 39.1001Z" fill="black"/>
<path d="M136.5 47.1003V44.2003H144.8V33.8003H133.8V54.1003H146.5V57.1003H133.8C133.3 57.1003 132.9 56.8003 132.5 56.1003C132.2 55.5003 132 54.7003 132 53.7003V34.2003C132 33.3003 132.2 32.5003 132.5 31.8003C132.8 31.2003 133.3 30.8003 133.8 30.8003H144.8C145.3 30.8003 145.7 31.1003 146.1 31.8003C146.4 32.4003 146.6 33.2003 146.6 34.2003V43.8003C146.6 44.7003 146.4 45.5003 146.1 46.2003C145.8 46.8003 145.3 47.2003 144.8 47.2003H136.5V47.1003Z" fill="black"/>
<path d="M150.4 30.8002H153V24.2002H154.8V30.8002H159.9V33.7002H154.8V57.2002H153V33.7002H150.4V30.8002Z" fill="black"/>
<path d="M163.3 22.1001H165.3V26.2001H163.3V22.1001ZM165.2 30.8001V57.1001H163.4V30.8001H165.2Z" fill="black"/>
<path d="M183.4 57.2002V33.8002H173.7V57.1002H171.9V34.1002C171.9 33.2002 172.1 32.4002 172.4 31.7002C172.7 31.1002 173.2 30.7002 173.7 30.7002H183.4C183.9 30.7002 184.3 31.0002 184.7 31.7002C185 32.3002 185.2 33.1002 185.2 34.1002V57.1002H183.4V57.2002Z" fill="black"/>
<path d="M191.5 34.2003C191.5 33.3003 191.7 32.5003 192 31.8003C192.3 31.2003 192.8 30.8003 193.3 30.8003H200.5V33.8003H193.3V54.2003H203.1V30.8003H204.9V62.6003C204.9 63.5003 204.7 64.3003 204.4 65.0003C204.1 65.6003 203.6 66.0003 203.1 66.0003H199.4V63.0003H203.1V57.2003H193.3C192.8 57.2003 192.4 56.9003 192 56.2003C191.7 55.6003 191.5 54.8003 191.5 53.8003V34.2003Z" fill="black"/>
<path d="M61.4 60.2001V63.2001H51.8V83.6001H61.8V86.6001H51.8C51.3 86.6001 50.9 86.3001 50.5 85.6001C50.2 85.0001 50 84.2001 50 83.2001V63.5001C50 62.6001 50.2 61.8001 50.5 61.1001C50.8 60.5001 51.3 60.1001 51.8 60.1001H61.4V60.2001Z" fill="black"/>
<path d="M66.7002 63.5001C66.7002 62.6001 66.9002 61.8001 67.2002 61.1001C67.5002 60.5001 68.0002 60.1001 68.5002 60.1001H78.6002C79.1002 60.1001 79.5002 60.4001 79.9002 61.1001C80.2002 61.7001 80.4002 62.5001 80.4002 63.5001V83.2001C80.4002 84.1001 80.2002 84.9001 79.9002 85.6001C79.6002 86.2001 79.1002 86.6001 78.6002 86.6001H68.5002C68.0002 86.6001 67.6002 86.3001 67.2002 85.6001C66.9002 85.0001 66.7002 84.2001 66.7002 83.2001V63.5001ZM68.5002 83.5001H78.6002V63.2001H68.5002V83.5001Z" fill="black"/>
<path d="M106.9 60.2001C107.4 60.2001 107.8 60.5001 108.2 61.2001C108.6 61.9001 108.7 62.6001 108.7 63.6001V86.6001H106.9V63.2001H98.5998V86.5001H96.7998V63.2001H88.5998V86.5001H86.7998V63.5001C86.7998 62.6001 86.9998 61.8001 87.2998 61.1001C87.5998 60.4001 88.0998 60.1001 88.5998 60.1001H95.6998C96.4998 60.1001 97.0998 60.6001 97.6998 61.6001C98.2998 60.6001 98.8998 60.1001 99.6998 60.1001H106.9V60.2001Z" fill="black"/>
<path d="M119.9 86.5002V83.5002H127.1V63.2002H117.3V95.3002H115.5V60.2002H127.1C127.6 60.2002 128 60.5002 128.4 61.2002C128.7 61.8002 128.9 62.6002 128.9 63.6002V83.3002C128.9 84.2002 128.7 85.0002 128.4 85.7002C128.1 86.3002 127.6 86.7002 127.1 86.7002H119.9V86.5002Z" fill="black"/>
<path d="M143.9 69.5002V72.4002H135.6V83.4002H146.6V63.2002H135.5V60.2002H146.6C147.1 60.2002 147.5 60.5002 147.9 61.2002C148.2 61.8002 148.4 62.6002 148.4 63.6002V83.3002C148.4 84.2002 148.2 85.0002 147.9 85.7002C147.6 86.3002 147.1 86.7002 146.6 86.7002H135.6C135.1 86.7002 134.7 86.4002 134.3 85.7002C134 85.1002 133.8 84.3002 133.8 83.3002V72.9002C133.8 72.0002 134 71.2002 134.3 70.5002C134.6 69.9002 135.1 69.5002 135.6 69.5002H143.9Z" fill="black"/>
<path d="M166.3 86.5001V63.2001H156.6V86.5001H154.8V63.5001C154.8 62.6001 155 61.8001 155.3 61.1001C155.6 60.5001 156.1 60.1001 156.6 60.1001H166.3C166.8 60.1001 167.2 60.4001 167.6 61.1001C167.9 61.7001 168.1 62.5001 168.1 63.5001V86.5001H166.3Z" fill="black"/>
<path d="M176.8 79.8002L172.3 60.2002H174.2L177.8 75.9002L176.8 79.8002ZM187.1 60.2002L178 95.3002H176.1L185.1 60.2002H187.1Z" fill="black"/>
</svg>
