<svg width="205" height="173" viewBox="0 0 205 173" fill="none" xmlns="http://www.w3.org/2000/svg">
<g clip-path="url(#clip0_26_64)">
<path d="M88.3503 70.6992L87.66 72.6599C84.8991 72.7752 83.1735 73.1212 82.2532 73.6979C81.678 74.0439 81.2178 74.5052 80.7577 75.1972C80.2975 76.1199 78.917 80.6179 76.7313 89.0372C76.041 91.8052 74.2004 99.3019 71.2094 111.527C72.935 112.104 75.0057 112.335 77.6516 112.219L77.0764 114.065C76.2711 114.065 74.7756 113.949 72.4748 113.719C70.8643 113.603 68.9086 113.488 66.6078 113.488C63.5018 113.488 60.7408 113.719 58.21 114.18L58.6701 112.219C61.316 111.758 63.2717 111.297 64.6522 110.605C64.9973 110.489 65.2274 110.259 65.4574 110.028C65.8026 109.567 66.2627 108.759 66.6078 107.375C67.068 106.107 68.4485 100.686 70.8643 91.2286C71.5545 88.4606 73.05 82.5786 75.2358 73.3519C73.6252 73.3519 71.5545 73.5826 69.1387 74.0439L69.8289 72.0832C70.8643 71.8526 71.8996 71.6219 72.935 71.5066C73.9703 71.3912 76.3862 71.2759 80.0674 71.1606C83.7487 71.1606 86.3946 71.0452 88.3503 70.6992Z" fill="#464242"/>
<path d="M115.384 105.991L116.42 107.375C113.199 110.143 110.783 111.873 109.287 112.796C107.102 114.065 105.376 114.641 104.111 114.641C103.535 114.641 103.075 114.526 102.73 114.18C102.385 113.834 102.155 113.488 102.155 113.027C102.155 112.565 102.27 111.989 102.5 110.951L103.765 106.568C101.005 109.797 98.5887 111.873 96.633 113.027C94.6774 114.18 92.9518 114.641 91.4563 114.641C90.1908 114.641 89.1555 114.065 88.2352 112.911C87.3148 111.758 86.9697 110.143 86.9697 107.952C86.9697 104.492 88.1201 100.571 90.5359 96.0727C92.8367 91.5747 95.4826 88.3454 98.3586 86.1541C101.235 83.9627 103.881 82.9247 106.296 82.9247C106.872 82.9247 107.562 83.0401 108.712 83.1554C109.863 78.4267 110.898 75.0821 111.933 72.8907C112.969 70.6994 114.349 68.8541 115.96 67.3547C117.57 65.7401 119.411 64.5867 121.597 63.7794C123.667 62.9721 125.623 62.5107 127.464 62.5107C128.384 62.5107 129.189 62.7414 129.764 63.3181C130.34 63.7794 130.685 64.4714 130.685 65.2787C130.685 65.9707 130.455 66.6627 129.879 67.1241C129.304 67.5854 128.614 67.8161 127.694 67.8161C127.118 67.8161 125.968 67.7007 124.357 67.4701C122.747 67.2394 121.597 67.1241 121.021 67.1241C120.216 67.1241 119.411 67.3547 118.836 67.9314C118.145 68.3927 117.57 69.5461 116.995 71.2761C116.65 72.3141 115.73 75.7741 114.349 81.6561L109.287 103.454C108.712 105.991 108.367 107.721 108.367 108.644C108.367 109.567 108.712 110.028 109.402 110.028C109.863 110.028 110.323 109.913 110.898 109.567C111.473 108.99 113.084 107.837 115.384 105.991ZM107.792 87.3074C105.836 86.8461 104.456 86.6154 103.765 86.6154C102.155 86.6154 100.544 87.3074 99.0488 88.5761C97.5533 89.8447 96.0578 92.2667 94.5623 95.9574C93.1818 99.6481 92.3766 102.762 92.3766 105.53C92.3766 106.799 92.7217 107.721 93.4119 108.529C94.1022 109.336 94.7924 109.682 95.7127 109.682C96.7481 109.682 97.8985 109.221 99.1639 108.298C101.005 106.914 102.5 105.299 103.535 103.454C104.226 102.301 105.031 99.3021 106.181 94.5734L107.792 87.3074Z" fill="#464242"/>
<path d="M139.082 104.492L140.233 106.107C134.366 111.758 129.304 114.526 125.048 114.526C123.322 114.526 122.057 113.949 121.136 112.796C120.216 111.643 119.756 109.797 119.756 107.26C119.756 102.07 121.366 96.9954 124.472 91.8054C128.039 86.0387 132.18 83.04 137.012 83.04C138.737 83.04 140.003 83.5014 140.923 84.3087C141.843 85.116 142.304 86.3847 142.304 87.884C142.304 89.4987 141.728 90.998 140.693 92.4974C139.658 93.9967 137.702 95.6114 134.826 97.226C133.446 98.0334 130.455 99.4174 125.853 101.493C125.623 102.762 125.508 104.031 125.508 105.184C125.508 106.914 125.738 108.067 126.313 108.759C126.888 109.451 127.694 109.797 128.729 109.797C129.764 109.797 130.8 109.567 131.95 108.99C133.676 108.298 135.976 106.683 139.082 104.492ZM126.428 99.1867C130.339 97.4567 133.215 95.6114 135.171 93.5354C136.437 92.1514 137.127 90.7674 137.127 89.3834C137.127 88.3454 136.897 87.538 136.322 86.9614C135.746 86.3847 135.056 86.0387 134.251 86.0387C133.33 86.0387 132.525 86.3847 131.605 87.0767C130.455 87.9994 129.534 89.268 128.729 91.1134C127.694 93.766 126.888 96.4187 126.428 99.1867Z" fill="#464242"/>
<path d="M169.913 82.4633L172.329 82.002L169.568 91.1133C168.533 94.804 167.497 98.956 166.462 103.685C165.887 106.222 165.657 107.952 165.657 108.644C165.657 109.336 166.002 109.797 166.577 109.797C166.922 109.797 167.612 109.567 168.418 108.99C169.913 108.067 171.294 107.029 172.674 105.645L173.824 107.029C171.064 109.567 169.338 111.066 168.533 111.643C167.037 112.681 165.542 113.488 164.161 113.949C163.241 114.295 162.321 114.411 161.515 114.411C160.94 114.411 160.365 114.295 160.135 113.949C159.79 113.603 159.675 113.257 159.675 112.681C159.675 112.335 159.79 111.873 160.02 111.181L161.515 106.222C159.445 108.759 157.029 110.835 154.153 112.681C152.427 113.834 150.817 114.295 149.321 114.295C147.941 114.295 146.905 113.834 146.1 112.796C145.065 111.527 144.604 109.682 144.604 107.606C144.604 105.069 145.295 102.185 146.675 99.0713C148.056 95.9573 149.896 93.074 152.197 90.5366C154.498 87.9993 156.914 86.154 159.445 84.8853C161.4 83.9626 163.931 83.5013 166.922 83.5013C167.727 83.5013 168.418 83.5013 169.223 83.6166L169.913 82.4633ZM165.427 87.9993C164.161 87.7686 163.011 87.6533 162.09 87.6533C159.905 87.6533 158.064 88.23 156.454 89.4986C154.843 90.652 153.347 92.8433 151.967 95.9573C150.587 99.0713 149.896 102.185 149.896 105.184C149.896 106.799 150.126 107.952 150.702 108.759C151.277 109.451 151.967 109.797 152.887 109.797C154.498 109.797 156.339 108.875 158.179 107.145C160.135 105.299 161.515 102.762 162.321 99.4173L165.427 87.9993Z" fill="#464242"/>
<path d="M191.31 104.838L192.576 106.107C190.735 108.183 188.434 110.143 185.903 111.873C183.373 113.603 181.187 114.526 179.576 114.526C178.886 114.526 178.196 114.295 177.736 113.719C177.275 113.142 177.045 112.335 177.045 111.412C177.045 109.451 177.736 105.53 179.231 99.4173L183.142 83.5013C184.523 77.7346 185.788 73.9286 186.709 71.968C188.204 68.9693 190.275 66.6626 193.036 65.048C195.797 63.4333 198.673 62.626 201.664 62.626C202.699 62.626 203.504 62.8566 204.08 63.318C204.655 63.7793 205 64.4713 205 65.1633C205 65.9706 204.655 66.5473 204.08 67.124C203.504 67.5853 202.699 67.816 201.549 67.816C200.859 67.816 199.823 67.7006 198.443 67.47C197.292 67.2393 196.257 67.124 195.222 67.124C194.186 67.124 193.496 67.3546 193.036 67.7006C192.346 68.2773 191.655 69.546 191.195 71.3913C190.62 73.2366 189.7 76.9273 188.434 82.348L184.868 97.4566C183.142 105.069 182.222 108.99 182.222 109.336C182.222 110.143 182.452 110.489 183.027 110.489C183.603 110.489 184.293 110.143 185.328 109.567C187.284 108.413 189.355 106.799 191.31 104.838Z" fill="#464242"/>
<path d="M133.906 59.6274C134.136 57.6668 134.251 55.7061 134.136 53.8608C134.021 51.9001 133.791 50.0548 133.331 48.2094L133.791 48.6708C131.49 48.3248 129.189 48.3248 126.888 48.4401C124.588 48.5554 122.287 49.0168 120.216 49.8241L118.606 50.4008L118.491 48.5554C118.376 46.2487 117.685 43.8267 116.765 41.6354C116.305 40.4821 115.73 39.4441 115.154 38.4061C114.579 37.3681 113.889 36.3301 113.199 35.4074L115.039 36.0994C114.004 36.4454 112.739 36.7914 111.588 37.2527C110.438 37.7141 109.287 38.1754 108.252 38.7521C106.181 39.9054 104.226 41.2894 102.73 43.0194L100.544 45.5568L98.9339 42.5581C97.8986 40.5974 96.5181 38.7521 94.7925 37.1374C93.9872 36.3301 93.0669 35.5228 92.0316 34.8308C91.1113 34.1388 90.0759 33.4468 89.1556 32.8701L92.1466 32.7547C91.3413 33.4467 90.421 34.2541 89.6157 35.0614C88.8105 35.8687 88.0052 36.7914 87.315 37.7141C85.9345 39.5594 84.7841 41.5201 84.0939 43.4808L82.3683 49.0168L78.687 44.2881C77.9968 43.3654 77.0765 42.5581 76.0411 41.8661C75.0058 41.1741 73.8554 40.4821 72.5899 40.0208C71.3245 39.4441 70.0591 39.0981 68.6786 38.7521C67.9884 38.5214 67.2981 38.4061 66.6079 38.2908C65.9176 38.1754 65.2274 38.0601 64.6522 37.9448L67.9884 36.2148C67.7583 36.6761 67.4132 37.4834 67.068 38.1754C66.7229 38.8674 66.4928 39.5594 66.2628 40.2514C65.8026 41.6354 65.3424 43.0194 65.1124 44.4034C64.8823 45.7874 64.7673 47.1714 64.8823 48.4401C64.9973 49.7088 65.2274 50.8621 65.6876 51.9001L68.6786 58.8201L61.3161 56.9748C60.3958 56.7441 59.3604 56.6288 58.21 56.5134C57.0596 56.5134 56.0243 56.5134 54.8739 56.6287C53.7235 56.7441 52.5731 56.9748 51.4227 57.2054C50.8475 57.3207 50.2723 57.4361 49.6971 57.6668C49.1219 57.7821 48.5467 58.0128 48.0866 58.1281L50.6174 54.6681C50.6174 55.0141 50.6174 55.7061 50.6174 56.1674C50.6174 56.7441 50.7325 57.3207 50.7325 57.7821C50.8475 58.9354 50.9625 59.9734 51.1926 61.0114C51.6528 63.0874 52.343 65.1634 53.2633 66.7781L56.3694 72.1988L50.0422 72.7754C49.0069 72.8908 47.9715 73.1214 46.9362 73.4674C45.9008 73.9288 44.7504 74.3901 43.7151 75.0821C42.6797 75.7741 41.5293 76.4661 40.609 77.2734C40.1488 77.6194 39.5737 78.0808 39.1135 78.5421C38.6533 79.0034 38.0781 79.4648 37.8481 79.8108L38.6533 75.4281C38.8834 75.8894 39.2285 76.5814 39.4586 77.0428C39.8037 77.6194 40.1488 78.1961 40.494 78.7728C41.1842 79.9261 41.9895 80.9641 42.7948 81.8868C43.6 82.8094 44.5203 83.7321 45.3256 84.4241C46.2459 85.1161 47.1662 85.6928 48.0866 86.1541L54.5288 89.0374L48.8918 93.0741C47.3963 94.2274 45.9008 95.7268 44.7504 97.4568C44.1752 98.3794 43.485 99.3021 43.0248 100.225C42.7948 100.686 42.4496 101.147 42.2196 101.724C41.9895 102.185 41.7594 102.762 41.5293 103.108L40.609 98.8408C40.9541 99.1868 41.4143 99.5328 41.8744 99.9941C42.3346 100.34 42.7947 100.801 43.2549 101.147C44.1752 101.839 45.2106 102.531 46.1309 103.108C47.1662 103.685 48.0866 104.146 49.1219 104.607C50.1573 104.953 51.0776 105.299 52.1129 105.415L57.9799 106.568L54.7588 111.412C54.1836 112.219 53.7235 113.142 53.2633 114.18C52.9182 115.218 52.5731 116.256 52.228 117.409C51.9979 118.563 51.7678 119.716 51.6528 120.985C51.5377 121.561 51.5377 122.138 51.5377 122.83C51.5377 123.407 51.5377 124.099 51.5377 124.56L49.1219 121.331C49.9272 121.677 51.1926 122.023 52.228 122.253C53.2633 122.484 54.4137 122.715 55.4491 122.83C57.6348 123.061 59.7055 123.061 61.6612 122.715L66.2628 121.907L65.8026 126.405C65.5725 128.251 65.8026 130.442 66.1477 132.518C66.3778 133.556 66.6079 134.594 66.953 135.632C67.2981 136.67 67.6432 137.708 67.9884 138.631L64.9973 136.785C65.8026 136.785 66.7229 136.67 67.6432 136.555C68.5635 136.439 69.4839 136.209 70.4042 136.093C72.2448 135.632 73.9704 135.055 75.4659 134.363L78.4569 132.979L79.4923 135.978C80.0675 137.708 80.9878 139.323 82.0232 140.937C82.4833 141.745 83.0585 142.552 83.6337 143.244C84.2089 144.051 84.8991 144.743 85.4743 145.435L82.5984 144.859C83.4036 144.513 84.3239 144.051 85.2442 143.705C86.1646 143.244 86.9698 142.783 87.7751 142.206C89.3857 141.168 90.9962 139.899 92.2616 138.515L94.1023 136.67L95.7128 138.515C96.8632 139.899 98.1286 141.168 99.6242 142.206C100.314 142.783 101.12 143.359 101.81 143.821C102.615 144.282 103.42 144.859 104.111 145.205L102.04 145.551C102.73 144.974 103.535 144.167 104.341 143.359C105.031 142.552 105.721 141.745 106.411 140.937C107.677 139.323 108.827 137.477 109.633 135.632L110.323 134.133L111.588 134.94C113.429 136.093 115.5 136.901 117.57 137.593C118.606 137.939 119.756 138.169 120.791 138.4C121.942 138.631 122.977 138.746 124.128 138.861L123.437 139.323C123.897 138.285 124.358 137.131 124.818 135.978C125.278 134.825 125.623 133.671 125.853 132.403C126.428 129.981 126.658 127.559 126.428 125.021C126.658 126.29 126.888 127.559 126.888 128.712C126.888 129.981 126.888 131.249 126.658 132.518C126.543 133.787 126.313 135.055 125.968 136.324C125.623 137.593 125.278 138.746 124.818 140.015L124.703 140.476H124.128C122.862 140.476 121.712 140.476 120.561 140.361C119.411 140.245 118.261 140.13 116.995 139.899C115.845 139.669 114.694 139.323 113.544 138.977C112.394 138.631 111.243 138.054 110.208 137.477L112.163 136.785C111.358 139.092 110.208 141.168 108.942 143.129C108.252 144.051 107.562 145.089 106.872 145.897C106.066 146.819 105.376 147.627 104.456 148.549L103.651 149.357L102.5 148.78C101.465 148.319 100.66 147.857 99.7392 147.396C98.8189 146.935 98.0136 146.358 97.0933 145.781C95.3677 144.628 93.7572 143.244 92.2616 141.629H95.5978C94.1023 143.475 92.3767 144.974 90.5361 146.358C89.6157 147.05 88.6954 147.627 87.6601 148.203C86.6247 148.78 85.7044 149.357 84.554 149.818L83.0585 150.51L81.7931 149.241C80.8728 148.434 80.1825 147.627 79.4923 146.704C78.802 145.897 78.1118 144.974 77.4216 144.051C76.1562 142.206 75.0058 140.245 74.0854 138.054L78.1118 139.669C76.0411 140.707 73.9704 141.514 71.7847 142.091C70.7493 142.437 69.5989 142.667 68.5636 142.783C67.4132 143.013 66.4928 143.129 65.2274 143.244L63.1567 143.359L62.2364 141.399C61.5462 140.13 61.201 138.977 60.7409 137.708C60.2807 136.439 59.9356 135.286 59.5905 133.902C59.0153 131.365 58.6702 128.597 58.7852 125.713L62.9266 129.404C60.0506 129.981 57.1747 130.096 54.5288 129.75C53.1483 129.635 51.8829 129.404 50.5024 129.173C49.1219 128.827 47.9715 128.597 46.476 128.135L44.1752 127.328L44.0602 124.906C44.0602 123.983 44.0602 123.291 44.0602 122.599C44.0602 121.907 44.0602 121.1 44.1752 120.408C44.2903 118.909 44.5203 117.409 44.7504 116.025C45.3256 113.027 46.361 110.028 48.2016 107.145L50.8475 113.142C47.5114 112.681 44.6354 111.412 42.1045 109.913C40.8391 109.105 39.5737 108.298 38.4233 107.491C37.8481 107.029 37.2729 106.568 36.6977 106.107C36.1225 105.645 35.6623 105.184 34.9721 104.607L33.1315 102.762L34.1668 100.34C34.5119 99.5328 34.742 98.9561 35.0871 98.3794C35.4322 97.8028 35.6623 97.1108 36.0074 96.5341C36.6977 95.3808 37.3879 94.2274 38.1932 93.0741C39.8037 90.7674 41.7594 88.6914 44.1752 86.8461L44.9805 93.7661C43.1399 93.0741 41.5293 92.0361 40.1488 90.8828C38.7684 89.7294 37.5029 88.5761 36.4676 87.1921C35.4322 85.9234 34.3969 84.5394 33.5916 83.1554C33.1315 82.4634 32.7863 81.7714 32.3262 81.0794C31.866 80.3874 31.6359 79.6954 31.1758 78.7728L30.0254 76.3508L31.866 74.3901C32.5563 73.6981 33.1315 73.2368 33.7066 72.6601C34.2818 72.0834 34.9721 71.6221 35.5473 71.1608C36.8127 70.1228 38.1932 69.2001 39.5737 68.3927C41.0692 67.5854 42.5647 66.7781 44.1752 66.2014C45.9008 65.6248 47.6264 65.2788 49.5821 65.0481L46.361 70.9301C44.8655 68.2774 43.9451 65.3941 43.3699 62.7414C43.1399 61.3574 42.9098 59.9734 42.7948 58.5894C42.7948 57.8974 42.6797 57.2054 42.6797 56.5134C42.6797 55.8214 42.6797 55.1294 42.6797 54.3221L42.7948 51.7848L45.2106 50.9774C46.0159 50.6314 46.7061 50.5161 47.3963 50.2854C48.0866 50.0548 48.7768 49.9394 49.5821 49.7087C50.9625 49.3627 52.4581 49.1321 53.9536 49.0168C56.9446 48.7861 60.0506 48.9014 63.2717 49.8241L58.9003 54.8988C57.9799 52.8228 57.6348 50.7467 57.5198 48.7861C57.4047 46.8254 57.6348 44.8647 58.095 43.0194C58.4401 41.1741 59.0153 39.4441 59.7055 37.7141C60.0506 36.9068 60.3958 35.9841 60.7409 35.1768C61.086 34.3694 61.5462 33.5621 62.0063 32.6394L63.1567 30.5634L65.3424 30.9094C66.3778 31.0247 67.068 31.2554 67.9884 31.3708C68.7936 31.6014 69.5989 31.7167 70.4042 32.0627C72.0147 32.5241 73.6253 33.1007 75.2358 33.9081C76.8464 34.7154 78.3419 35.5227 79.8374 36.6761C81.3329 37.8294 82.5984 39.2134 83.7487 40.8281L78.2269 41.6354C79.2622 38.7521 80.9878 36.3301 82.7134 34.1388C83.6337 33.1008 84.554 32.0627 85.5894 31.1401C86.6247 30.2174 87.6601 29.2948 88.8105 28.3721L90.306 27.2188L91.8015 28.1414C93.0669 28.9487 94.1023 29.7561 95.1376 30.6788C96.173 31.6014 97.2083 32.5241 98.1287 33.5621C100.084 35.6381 101.81 37.9448 102.96 40.5974L99.164 40.0208C101.235 37.8294 103.766 36.3301 106.181 35.1768C107.447 34.6001 108.712 34.1388 109.978 33.6774C111.243 33.2161 112.509 32.8701 114.004 32.6394L115.27 32.4088L116.19 33.4468C116.995 34.7154 117.57 35.7534 118.145 37.0221C118.721 38.2907 119.181 39.4441 119.641 40.7127C120.561 43.2501 121.021 45.9028 121.021 48.7861L119.296 47.6327C121.712 46.9408 124.243 46.7101 126.658 46.7101C127.924 46.7101 129.074 46.8254 130.34 46.9408C131.605 47.0561 132.755 47.2868 133.906 47.5174L134.366 47.6327V47.9788C134.596 49.9394 134.711 51.9001 134.596 53.8608C134.596 55.8214 134.366 57.7821 133.906 59.6274Z" fill="#464242"/>
<path d="M160.365 81.0793C161.86 80.5027 163.241 79.6953 164.391 78.542C165.542 77.504 166.462 76.12 167.382 74.8513C168.187 73.4673 168.878 72.0833 169.568 70.584C170.143 69.0847 170.718 67.5853 171.063 66.086L171.178 66.6627C169.108 65.048 166.807 63.5487 164.391 62.3953C163.126 61.8187 161.975 61.3573 160.71 61.0113C159.444 60.6653 158.179 60.55 156.914 60.55H154.498L156.338 58.9353C157.374 58.128 158.179 57.09 158.869 55.9367C159.559 54.7833 160.135 53.63 160.71 52.3613C161.17 51.0927 161.63 49.824 161.975 48.44C162.32 47.1713 162.55 45.7873 162.781 44.5187L163.356 45.672C162.09 44.8647 160.71 44.1727 159.329 43.596C157.949 43.0193 156.568 42.4427 155.073 42.0967C153.692 41.7507 152.197 41.52 150.816 41.52C149.436 41.52 148.056 41.7507 146.79 42.212L144.489 43.1347L144.604 40.5973C144.719 38.6367 144.719 36.5607 144.604 34.6C144.489 33.562 144.489 32.6393 144.259 31.6013C144.144 30.5633 144.029 29.5253 143.799 28.718L145.18 30.102C143.684 29.8713 141.958 29.6407 140.348 29.5253C138.737 29.41 137.127 29.41 135.401 29.5253C133.791 29.6407 132.18 29.756 130.57 30.102C128.959 30.3327 127.464 30.794 125.968 31.2553L123.322 32.178L123.207 29.2947C123.092 27.68 122.862 25.95 122.517 24.3353C122.057 22.7207 121.597 20.9907 120.906 19.376C120.216 17.7613 119.526 16.1467 118.721 14.6473C117.915 13.148 116.995 11.5333 116.075 10.2647L118.49 11.1873C116.88 11.5333 115.154 12.11 113.544 12.802C111.933 13.3787 110.323 14.186 108.712 14.878C107.102 15.6853 105.721 16.608 104.341 17.5307C102.96 18.5687 101.695 19.6067 100.659 20.8753L98.0135 23.6433L96.2879 20.1833C95.5976 18.684 94.6773 17.3 93.642 15.916C92.6066 14.532 91.4562 13.2633 90.3058 12.11C89.0404 10.9567 87.775 9.80333 86.3945 8.65C85.014 7.612 83.5185 6.574 82.138 5.76667H85.4742C84.2088 6.68933 82.8283 7.958 81.6779 9.11133C80.4125 10.38 79.2621 11.6487 78.2267 12.9173C77.1914 14.3013 76.156 15.6853 75.3507 17.0693C74.5454 18.4533 73.8552 19.9527 73.28 21.452L71.3243 26.8727L67.8732 22.2593C66.8378 20.76 65.4574 19.4913 63.8468 18.338C62.2362 17.1847 60.5107 16.262 58.67 15.4547C56.8294 14.6473 54.8737 13.9553 52.803 13.3787C51.7677 13.148 50.8474 12.802 49.812 12.6867C48.7767 12.456 47.7413 12.3407 46.821 12.2253L49.927 10.6107C49.4669 11.418 49.0067 12.456 48.5466 13.494C48.0864 14.532 47.7413 15.57 47.2811 16.608C46.5909 18.684 45.9007 20.76 45.5556 22.836C45.2104 24.912 44.9804 26.988 45.0954 29.064C45.2104 31.0247 45.6706 32.9853 46.3608 34.7153L49.0067 41.0587L42.4495 39.2133C40.954 38.8673 39.3434 38.5213 37.6178 38.406C35.8923 38.2907 34.1667 38.406 32.4411 38.5213C30.7155 38.752 28.9899 38.9827 27.2643 39.444C25.5387 39.79 23.8131 40.3667 22.3176 40.828L24.5034 37.8293C24.5034 39.3287 24.5034 41.0587 24.7334 42.6733C24.8485 44.288 25.0786 46.018 25.4237 47.6327C25.7688 49.2473 26.229 50.7467 26.6891 52.3613C27.2643 53.8607 27.8395 55.2447 28.6448 56.6287L31.2907 61.3573L25.8838 61.8187C24.1582 61.934 22.4327 62.28 20.7071 62.972C18.9815 63.664 17.2559 64.4713 15.6453 65.394C14.0348 66.432 12.4242 67.47 10.9287 68.6233C10.1235 69.2 9.43322 69.892 8.62795 70.4687C7.93771 71.0453 7.13243 71.8527 6.55724 72.4293L7.24747 68.7387C7.59259 69.546 8.05275 70.4687 8.51291 71.276C8.97306 72.0833 9.43322 73.006 10.0084 73.8133C11.0438 75.428 12.1942 77.0427 13.4596 78.542C14.725 80.0413 16.1055 81.31 17.486 82.5787C18.9815 83.732 20.477 84.6547 21.9725 85.3467L27.3793 87.6533L22.7778 91.1133C21.6274 92.036 20.362 93.074 19.3266 94.2273C18.2912 95.3807 17.2559 96.6493 16.3356 97.918C15.4153 99.1867 14.4949 100.686 13.6897 102.07C12.8844 103.454 12.0791 105.069 11.5039 106.453L10.8137 102.877C11.9641 104.031 13.3446 105.184 14.725 106.222C16.1055 107.26 17.601 108.298 19.0965 109.105C20.592 110.028 22.0875 110.72 23.6981 111.412C25.3086 111.989 26.8042 112.45 28.4147 112.796L33.3614 113.719L30.6004 117.871C29.6801 119.255 28.8749 120.639 28.2997 122.253C27.7245 123.868 27.1493 125.483 26.8042 127.213C26.459 128.943 26.1139 130.673 25.9989 132.518C25.8838 134.248 25.7688 136.209 25.7688 137.823L23.6981 135.055C25.0786 135.517 26.8042 135.978 28.2997 136.324C29.9102 136.67 31.5208 137.016 33.1313 137.131C34.7419 137.362 36.3524 137.362 37.963 137.362C39.5735 137.362 41.069 137.131 42.5645 136.901L46.4759 136.209L46.2458 140.13C46.1308 141.629 46.1308 143.129 46.2458 144.743C46.3608 146.243 46.5909 147.857 46.936 149.472C47.2811 150.971 47.7413 152.586 48.2015 154.085C48.6616 155.585 49.2368 157.199 49.927 158.468L47.1661 156.853C48.4315 156.738 49.812 156.623 51.1925 156.392C52.5729 156.161 53.9534 155.931 55.2189 155.585C56.5993 155.239 57.8648 154.893 59.1302 154.431C60.3956 153.97 61.661 153.509 62.8114 152.932L65.4574 151.663L66.4927 154.316C66.9529 155.585 67.5281 156.853 68.1033 158.122C68.7935 159.391 69.4837 160.544 70.174 161.697C70.9792 162.851 71.7845 164.004 72.7048 165.157C73.6251 166.195 74.5454 167.349 75.4658 168.271L72.8199 167.81C74.0853 167.349 75.3507 166.657 76.6162 165.965C77.8816 165.273 79.147 164.465 80.2974 163.658C81.4478 162.851 82.5982 162.043 83.7486 161.121C84.899 160.198 85.8193 159.275 86.8547 158.237L88.5802 156.392L90.1908 158.237C90.9961 159.16 91.9164 160.198 92.9517 161.005C93.8721 161.928 94.9074 162.735 96.0578 163.543C97.0931 164.35 98.2435 165.157 99.3939 165.849C100.544 166.541 101.695 167.233 102.845 167.81L100.659 168.156C101.695 167.233 102.845 166.08 103.88 164.927C104.916 163.773 105.836 162.62 106.756 161.351C107.677 160.083 108.482 158.814 109.287 157.545C110.093 156.277 110.668 154.893 111.243 153.509L112.048 151.663L113.774 152.586C115.154 153.393 116.535 154.085 117.915 154.662C119.411 155.239 120.906 155.7 122.402 156.161C123.897 156.623 125.508 156.853 127.118 157.199C128.729 157.43 130.339 157.661 131.835 157.661L130.57 158.468C131.145 157.084 131.72 155.585 132.18 154.085C132.64 152.586 133.1 151.087 133.446 149.472C133.791 147.973 134.021 146.358 134.136 144.859C134.251 143.244 134.366 141.745 134.251 140.13L134.136 137.939L135.746 139.323C136.897 140.245 138.162 140.937 139.658 141.399C141.153 141.86 142.649 141.975 144.144 142.091C145.64 142.206 147.25 142.091 148.861 141.86C150.356 141.629 151.967 141.399 153.462 140.937L153.117 141.399C153.347 139.899 153.462 138.285 153.577 136.67C153.577 135.055 153.577 133.441 153.347 131.941C153.117 130.327 152.772 128.827 152.082 127.328C151.392 125.829 150.586 124.56 149.321 123.407C150.586 124.445 151.507 125.829 152.312 127.213C153.002 128.712 153.462 130.211 153.808 131.826C154.153 133.441 154.268 135.055 154.383 136.67C154.383 138.285 154.383 139.899 154.268 141.629V141.975L153.923 142.091C152.312 142.667 150.816 143.013 149.206 143.244C147.595 143.475 145.985 143.705 144.374 143.705C142.764 143.705 141.038 143.59 139.428 143.129C137.817 142.667 136.206 141.975 134.826 140.937L136.437 140.13C136.552 141.745 136.667 143.475 136.552 145.089C136.437 146.704 136.206 148.434 135.976 150.049C135.631 151.663 135.286 153.278 134.826 154.893C134.366 156.507 133.906 158.007 133.215 159.621L132.87 160.429H131.95C130.224 160.429 128.499 160.313 126.888 160.083C125.163 159.852 123.552 159.621 121.827 159.275C120.216 158.929 118.49 158.468 116.88 157.891C115.269 157.315 113.659 156.623 112.163 155.7L114.579 154.777C114.004 156.392 113.314 157.891 112.508 159.391C111.703 160.89 110.783 162.274 109.863 163.658C108.942 165.042 107.907 166.311 106.871 167.579C105.836 168.848 104.686 170.001 103.42 171.27L102.5 172.193L101.235 171.616C99.8541 170.924 98.5887 170.232 97.3232 169.54C96.0578 168.848 94.9074 168.041 93.642 167.118C92.4916 166.311 91.3412 165.388 90.1908 164.35C89.0404 163.427 88.005 162.389 86.9697 161.236H90.3058C89.2705 162.505 88.1201 163.658 86.8547 164.696C85.5892 165.734 84.4388 166.772 83.0584 167.695C81.7929 168.617 80.4125 169.425 79.032 170.232C77.6515 171.039 76.271 171.731 74.7755 172.423L73.28 173.115L72.1296 171.962C70.9792 170.809 69.9439 169.655 68.9085 168.502C67.8732 167.349 66.9529 166.08 66.1476 164.811C65.2273 163.543 64.422 162.159 63.6167 160.775C62.8114 159.391 62.2362 157.891 61.546 156.392L65.2273 157.776C63.8468 158.468 62.3513 159.16 60.9708 159.737C59.4753 160.313 58.0948 160.775 56.5993 161.121C55.1038 161.467 53.6083 161.813 52.1128 162.159C50.6173 162.389 49.1218 162.62 47.5112 162.735L45.6706 162.851L44.8653 161.121C44.06 159.391 43.3698 157.776 42.7946 156.046C42.2194 154.316 41.7593 152.586 41.2991 150.856C40.8389 149.126 40.6089 147.281 40.3788 145.435C40.1487 143.59 40.1487 141.745 40.2637 139.784L43.83 143.013C41.8743 143.359 40.0337 143.59 38.078 143.705C36.1223 143.705 34.2817 143.705 32.4411 143.475C30.6004 143.244 28.7598 143.013 26.9192 142.552C25.0786 142.091 23.353 141.745 21.5123 141.053L19.5567 140.361L19.4416 138.285C19.3266 136.093 19.4416 134.133 19.5567 132.057C19.6717 129.981 20.0168 128.02 20.362 125.944C20.8221 123.868 21.3973 121.907 22.0875 119.947C22.8928 117.986 23.8131 116.025 25.0786 114.18L27.2643 119.255C25.0786 118.909 23.0079 118.332 21.0522 117.64C19.0965 116.833 17.2559 116.025 15.5303 114.987C13.8047 113.949 12.0791 112.796 10.4686 111.643C8.85802 110.374 7.36251 109.221 5.75196 107.721L4.14141 106.222L5.17677 103.8C5.98204 101.955 6.78732 100.34 7.70763 98.61C8.62795 96.9953 9.6633 95.3807 10.6987 93.8813C11.734 92.382 12.9994 90.8827 14.2649 89.3833C15.5303 87.9993 17.0258 86.6153 18.6364 85.462L19.3266 91.344C17.0258 90.4213 14.9551 89.0373 12.9994 87.6533C11.1588 86.154 9.54826 84.5393 8.05275 82.8093C6.55724 81.0793 5.29181 79.234 4.02637 77.2733C3.45118 76.3507 2.87598 75.3127 2.30079 74.39C1.72559 73.352 1.26543 72.4293 0.690236 71.276L0 69.2L1.61055 67.5853C2.53086 66.6627 3.2211 65.9707 4.14141 65.1633C4.94669 64.4713 5.867 63.664 6.67228 62.972C8.39787 61.588 10.2385 60.3193 12.1942 59.166C14.1498 58.0127 16.2205 57.09 18.4063 56.2827C20.592 55.4753 23.0079 55.014 25.4237 54.7833L22.6627 59.9733C20.592 56.398 19.4416 52.7073 18.7514 48.9013C18.4063 47.056 18.1762 45.0953 17.9461 43.25C17.8311 41.2893 17.716 39.5593 17.716 37.4833L17.8311 35.1767L19.9018 34.4847C21.9725 33.7927 23.8131 33.216 25.7688 32.87C27.7245 32.4087 29.6801 32.0627 31.7508 31.9473C33.8215 31.7167 35.8923 31.7167 37.963 31.832C40.0337 31.9473 42.2194 32.2933 44.2901 32.87L40.3788 37.4833C39.2284 34.8307 38.6532 32.0627 38.5382 29.41C38.4231 26.7573 38.7682 24.1047 39.2284 21.5673C39.6885 19.03 40.4938 16.608 41.2991 14.3013C41.7593 13.148 42.2194 11.9947 42.6796 10.8413C43.2548 9.688 43.7149 8.65 44.4052 7.38133L45.4405 5.536L47.6263 5.76667C48.8917 5.99733 50.0421 6.11267 51.1925 6.45867C52.3429 6.68933 53.4933 7.03533 54.6437 7.38133C56.9444 8.07333 59.1302 8.88067 61.3159 9.80333C63.5017 10.8413 65.5724 11.9947 67.6431 13.494C69.5988 14.9933 71.4394 16.8387 72.9349 18.9147L67.5281 19.6067C68.9085 15.6853 71.0943 12.2253 73.6251 9.22667C74.8906 7.72733 76.156 6.34333 77.6515 4.95933C79.032 3.57533 80.5275 2.422 82.138 1.15333L83.6336 0L85.2441 1.038C86.9697 2.19133 88.4652 3.22933 90.0758 4.498C91.4562 5.65133 92.9517 6.92 94.3322 8.304C97.0931 11.072 99.509 14.3013 101.235 17.992L96.8631 17.3C99.7391 14.3013 103.075 12.11 106.641 10.38C108.367 9.57267 110.208 8.76533 112.048 8.18867C113.889 7.49667 115.73 7.03533 117.685 6.574L119.296 6.228L120.216 7.49667C121.366 9.22667 122.287 10.8413 123.092 12.5713C123.897 14.3013 124.703 16.0313 125.393 17.8767C126.658 21.452 127.579 25.3733 127.579 29.2947L124.818 27.334C126.543 26.7573 128.384 26.296 130.109 26.0653C131.835 25.8347 133.676 25.604 135.401 25.604C137.127 25.604 138.967 25.604 140.693 25.8347C142.419 25.95 144.144 26.1807 145.985 26.5267L147.135 26.7573L147.365 27.9107C147.595 29.064 147.71 30.102 147.825 31.14C147.941 32.178 148.056 33.3313 148.056 34.3693C148.171 36.5607 148.056 38.6367 147.825 40.828L145.64 39.2133C147.365 38.6367 149.091 38.406 150.816 38.5213C152.542 38.6367 154.153 38.9827 155.763 39.444C157.374 39.9053 158.869 40.482 160.365 41.2893C161.86 41.9813 163.241 42.7887 164.621 43.7113L165.311 44.1727L165.196 44.8647C164.966 46.364 164.621 47.748 164.161 49.132C163.701 50.516 163.241 51.9 162.666 53.284C162.09 54.668 161.285 55.9367 160.48 57.09C159.559 58.2433 158.639 59.3967 157.374 60.3193L156.799 58.7047C158.294 58.7047 159.675 59.0507 161.055 59.3967C162.435 59.858 163.701 60.3193 164.966 61.0113C166.232 61.7033 167.382 62.3953 168.533 63.2027C169.683 64.01 170.718 64.8173 171.869 65.74L172.099 65.9707L171.984 66.3167C171.524 67.9313 170.833 69.4307 170.143 70.93C169.453 72.4293 168.648 73.8133 167.727 75.1973C166.807 76.466 165.772 77.7347 164.506 78.7727C163.241 79.8107 161.86 80.618 160.365 81.0793Z" fill="#464242"/>
</g>
<defs>
<clipPath id="clip0_26_64">
<rect width="205" height="173" fill="white"/>
</clipPath>
</defs>
</svg>
