<svg width="696" height="39" viewBox="0 0 696 39" fill="none" xmlns="http://www.w3.org/2000/svg">
<path d="M349.7 0.0999023C352.4 0.399902 354.5 1.49989 355.9 3.39989C358.7 6.89989 358 11.8999 358 12.0999C358 19.9999 354.4 25.5999 349.4 29.4999C360.7 37.4999 378.3 37.5999 378.6 37.5999H667.6V38.5999H378.6C378.3 38.5999 360.1 38.4999 348.6 30.0999C337 38.3999 318.8 38.5999 318.6 38.5999H29.5996V37.5999H318.6C318.9 37.5999 336.5 37.4999 347.8 29.4999C342.8 25.5999 339.2 20.0999 339.2 12.1999C339.2 12.0999 338 1.89991 346.8 0.299915L348.2 0.0999023C348.6 -9.76548e-05 349.2 -9.76548e-05 349.7 0.0999023ZM357 11.8999C357 11.8999 357.6 10.0999 355.1 6.89989C353.8 5.29989 352 4.29987 349.6 3.99987C349.1 3.89987 348.6 3.89989 348.1 3.89989L346.8 4.0999C338.9 5.4999 340 11.4999 340.1 11.8999C340.1 19.5999 343.6 24.8999 348.6 28.6999C353.5 24.9999 357 19.5999 357 11.8999Z" fill="#D18067"/>
<path d="M18 38C19.1046 38 20 37.1046 20 36C20 34.8954 19.1046 34 18 34C16.8954 34 16 34.8954 16 36C16 37.1046 16.8954 38 18 38Z" stroke="#D18067" stroke-miterlimit="10"/>
<path d="M4 38C5.65685 38 7 36.6569 7 35C7 33.3431 5.65685 32 4 32C2.34315 32 1 33.3431 1 35C1 36.6569 2.34315 38 4 38Z" stroke="#D18067" stroke-miterlimit="10"/>
<path d="M678 38C679.105 38 680 37.1046 680 36C680 34.8954 679.105 34 678 34C676.895 34 676 34.8954 676 36C676 37.1046 676.895 38 678 38Z" stroke="#D18067" stroke-miterlimit="10"/>
<path d="M692 38C693.657 38 695 36.6569 695 35C695 33.3431 693.657 32 692 32C690.343 32 689 33.3431 689 35C689 36.6569 690.343 38 692 38Z" stroke="#D18067" stroke-miterlimit="10"/>
<path d="M383.1 27.9999C382.6 29.7999 381 30.9999 379.3 31.4999C377.6 32.0999 375.7 32.0999 373.9 31.9999C370.3 31.7999 366.8 30.7999 363.4 29.5999C363 29.4999 362.6 29.2999 362.1 29.0999C361.7 28.8999 361.2 28.6999 360.9 28.2999C360.2 27.5999 359.8 26.6999 359.8 25.6999C360 23.8999 360.3 22.0999 360.8 20.3999C361.4 18.6999 362.2 17.0999 363.5 15.7999C364.1 15.1999 364.9 14.5999 365.7 14.1999C366.5 13.7999 367.5 13.5999 368.5 13.7999C369 13.8999 369.4 14.1999 369.8 14.4999C370.2 14.7999 370.5 15.2999 370.5 15.8999C370.5 16.4999 370.3 16.9999 370 17.3999C369.7 17.7999 369.4 18.0999 369 18.3999C368.3 18.9999 367.5 19.4999 366.7 19.8999C366.5 19.9999 366.3 20.0999 366.1 20.1999L365.5 20.4999C365.1 20.6999 364.7 20.8999 364.4 21.0999C363.7 21.4999 363 22.0999 362.5 22.6999C362 23.3999 361.6 23.9999 361.7 24.7999C361.7 25.4999 362.1 26.2999 362.7 26.6999C363 26.8999 363.3 27.0999 363.7 27.1999C364.1 27.2999 364.5 27.3999 365 27.4999C366.7 27.8999 368.4 28.0999 370.1 27.8999C370.9 27.7999 371.8 27.5999 372.5 27.1999C373.3 26.7999 373.9 26.2999 374.7 25.7999C375.5 25.2999 376.3 24.8999 377.2 24.6999C378.1 24.3999 379 24.2999 379.9 24.3999C380.8 24.4999 381.7 24.6999 382.4 25.2999C383.1 26.0999 383.4 27.1999 383.1 27.9999ZM383 27.9999C383.3 27.1999 383 26.1999 382.3 25.6999C381.6 25.1999 380.7 24.8999 379.9 24.8999C379 24.8999 378.2 25.0999 377.4 25.3999C376.6 25.6999 375.8 26.1999 375.1 26.5999C374.4 27.0999 373.7 27.7999 372.9 28.1999C372.1 28.5999 371.2 28.8999 370.2 29.0999C368.4 29.3999 366.5 29.1999 364.7 28.7999C364.3 28.6999 363.8 28.5999 363.4 28.3999C362.9 28.2999 362.4 27.9999 362.1 27.6999C361.3 26.9999 360.8 25.9999 360.8 24.9999C360.8 24.4999 360.9 23.9999 361.1 23.4999C361.3 22.9999 361.6 22.5999 361.9 22.2999C362.5 21.5999 363.3 20.9999 364.1 20.4999C364.5 20.2999 364.9 19.9999 365.3 19.8999L365.9 19.5999C366.1 19.4999 366.3 19.3999 366.5 19.2999C367.3 18.8999 368 18.4999 368.7 17.8999C369.3 17.3999 370 16.6999 370 15.9999C370 15.2999 369.3 14.6999 368.5 14.3999C367.7 14.0999 366.9 14.2999 366.1 14.5999C365.3 14.8999 364.6 15.3999 364 15.9999C362.7 17.1999 361.9 18.7999 361.4 20.4999C360.9 22.1999 360.6 23.9999 360.6 25.6999C360.6 26.4999 361 27.2999 361.6 27.7999C361.9 28.0999 362.2 28.1999 362.6 28.3999L363.9 28.7999C367.3 29.8999 370.7 30.8999 374.2 31.2999C375.9 31.4999 377.7 31.5999 379.4 31.0999C380.2 30.8999 381.1 30.4999 381.7 29.8999C382.2 29.5999 382.7 28.7999 383 27.9999Z" fill="#D18067"/>
<path d="M314.2 27.9999C314.5 28.9999 315.2 29.8999 316 30.4999C316.8 31.0999 317.9 31.3999 318.9 31.5999C320.9 31.8999 323 31.6999 325.1 31.2999C327.1 30.9999 329.1 30.3999 331.1 29.7999C332.1 29.4999 333.1 29.1999 334.1 28.7999C335.1 28.4999 336.1 28.0999 337 27.6999L336.8 27.9999C336.8 25.7999 336.8 23.5999 336.2 21.3999C335.7 19.2999 334.6 17.1999 333 15.7999C332.2 15.0999 331.2 14.5999 330.1 14.3999C329.1 14.1999 328 14.6999 327.5 15.4999C327 16.2999 327.8 17.1999 328.6 17.8999C329.4 18.5999 330.4 19.0999 331.4 19.5999H331.3C332.1 19.8999 332.8 20.1999 333.5 20.6999C334.2 21.0999 334.8 21.6999 335.4 22.2999C335.9 22.8999 336.4 23.6999 336.6 24.5999C336.9 25.3999 336.8 26.2999 336.7 27.1999C336.7 27.3999 336.6 27.4999 336.4 27.5999C334.4 28.4999 332.3 29.0999 330.1 29.2999C327.9 29.4999 325.6 29.1999 323.7 27.9999C322.8 27.2999 322 26.6999 321.1 26.1999C320.2 25.6999 319.2 25.2999 318.2 25.0999C317.2 24.8999 316.1 24.9999 315.2 25.4999C314.8 25.7999 314.4 26.0999 314.2 26.5999C314 26.8999 314.1 27.4999 314.2 27.9999ZM314.1 27.9999C313.9 27.4999 313.9 26.8999 314.1 26.3999C314.3 25.8999 314.7 25.4999 315.2 25.1999C316.2 24.6999 317.3 24.4999 318.3 24.5999C319.4 24.6999 320.4 24.9999 321.4 25.4999C322.4 25.9999 323.3 26.6999 324.1 27.1999C325.8 28.1999 327.9 28.3999 330 28.1999C332 27.9999 334.1 27.3999 335.9 26.4999L335.6 26.8999C335.7 26.1999 335.8 25.4999 335.6 24.7999C335.4 24.0999 335.1 23.4999 334.6 22.8999C334.1 22.2999 333.6 21.8999 332.9 21.3999C332.3 20.9999 331.6 20.5999 330.9 20.3999C329.9 19.8999 328.9 19.2999 328 18.4999C327.6 18.0999 327.1 17.6999 326.8 17.0999C326.5 16.5999 326.5 15.6999 326.8 15.1999C327.5 14.0999 328.9 13.6999 330 13.8999C331.2 14.0999 332.2 14.7999 333 15.4999C334.7 16.9999 335.7 19.0999 336.4 21.2999C337 23.4999 337.3 25.6999 337.3 27.9999C337.3 28.0999 337.2 28.1999 337.1 28.2999C335.2 29.1999 333.2 29.8999 331.2 30.4999C329.2 31.1999 327.1 31.5999 325 31.8999C322.9 32.1999 320.7 32.1999 318.7 31.7999C317.7 31.5999 316.6 31.1999 315.8 30.4999C315.1 29.8999 314.4 28.9999 314.1 27.9999Z" fill="#D18067"/>
</svg>
