<svg width="1414" height="2000" viewBox="0 0 1414 2000" fill="none" xmlns="http://www.w3.org/2000/svg">
<path d="M1183.77 -44.9502C1176.88 -38.0621 1165.77 -37.9608 1158.75 -44.6463C1154.02 -38.6361 1149.84 -32.3557 1146.19 -25.8728C1155.07 -21.9898 1159.29 -11.6914 1155.58 -2.6423C1151.9 6.37302 1141.67 10.7963 1132.62 7.3522C1130.76 14.2066 1129.37 21.1284 1128.53 28.1179C1138.19 28.388 1145.95 36.2891 1145.99 46.0472C1145.99 55.7716 1138.22 63.7402 1128.53 63.9766C1129.44 71.6413 1130.96 79.2385 1133.12 86.7344C1142.14 83.189 1152.4 87.4435 1156.18 96.425C1160 105.44 1155.91 115.739 1147.1 119.757C1150.51 125.666 1154.33 131.372 1158.62 136.808C1165.67 130.157 1176.71 130.258 1183.6 137.146C1190.49 144.034 1190.59 155.143 1183.91 162.166C1189.92 166.893 1196.2 171.08 1202.68 174.727C1206.56 165.846 1216.86 161.626 1225.91 165.34C1234.93 169.02 1239.35 179.251 1235.9 188.3C1242.76 190.157 1249.68 191.542 1256.67 192.386C1256.94 182.729 1264.84 174.963 1274.6 174.929C1284.32 174.929 1292.29 182.695 1292.53 192.386C1300.19 191.474 1307.79 189.955 1315.29 187.794C1311.74 178.779 1316 168.514 1324.98 164.732C1333.99 160.917 1344.29 165.002 1348.31 173.815C1354.22 170.405 1359.92 166.589 1365.36 162.301C1358.71 155.244 1358.81 144.203 1365.7 137.315C1372.59 130.427 1383.69 130.325 1390.72 137.011C1395.45 131.001 1399.63 124.72 1403.28 118.237C1394.4 114.354 1390.18 104.056 1393.89 95.0069C1397.57 85.9916 1407.8 81.5683 1416.85 85.0124C1418.71 78.158 1420.09 71.2361 1420.94 64.2467C1411.28 63.9766 1403.52 56.0755 1403.48 46.3174C1403.48 36.593 1411.25 28.6244 1420.94 28.388C1420.03 20.7233 1418.51 13.1261 1416.35 5.6302C1407.33 9.17555 1397.07 4.92114 1393.28 -4.06042C1389.47 -13.0758 1393.55 -23.3742 1402.37 -27.3922C1398.96 -33.3012 1395.14 -39.0075 1390.85 -44.4437C1383.8 -37.792 1372.75 -37.8933 1365.87 -44.7814C1358.98 -51.6695 1358.88 -62.7783 1365.56 -69.8014C1359.55 -74.5286 1353.27 -78.7155 1346.79 -82.3621C1342.91 -73.4818 1332.61 -69.2612 1323.56 -72.9754C1314.54 -76.6558 1310.12 -86.8866 1313.56 -95.9358C1306.71 -97.7929 1299.79 -99.1772 1292.8 -100.021C1292.53 -90.3645 1284.63 -82.5985 1274.87 -82.5647C1265.15 -82.5647 1257.18 -90.3307 1256.94 -100.021C1249.28 -99.1097 1241.68 -97.5903 1234.18 -95.4293C1237.73 -86.414 1233.47 -76.1493 1224.49 -72.3676C1215.48 -68.5521 1205.18 -72.6377 1201.16 -81.4505C1195.25 -78.0402 1189.54 -74.2247 1184.11 -69.9365C1190.79 -62.9133 1190.66 -51.8383 1183.77 -44.9502ZM1310.63 10.3236C1330.45 30.1438 1330.45 62.2883 1310.63 82.1086C1290.81 101.929 1258.66 101.929 1238.84 82.1085C1219.02 62.2883 1219.02 30.1438 1238.84 10.3236C1258.66 -9.49665 1290.81 -9.49666 1310.63 10.3236Z" fill="white"/>
<path d="M1147.49 46.0472L1147.49 46.042C1147.45 36.0328 1139.91 27.8241 1130.22 26.7337C1131 20.8708 1132.15 15.0523 1133.66 9.27784C1143.05 11.9639 1153.19 7.17547 1156.96 -2.07274C1160.77 -11.3567 1156.88 -21.8549 1148.28 -26.5176C1151.45 -32.0008 1155.01 -37.333 1158.96 -42.4721C1166.59 -36.3472 1177.76 -36.8185 1184.83 -43.8896C1191.9 -50.9575 1192.41 -62.1006 1186.28 -69.7284C1190.86 -73.2515 1195.63 -76.4465 1200.54 -79.3534C1205.33 -70.8363 1215.82 -67.0719 1225.07 -70.9852C1234.3 -74.8686 1238.92 -85.0531 1236.12 -94.4169C1242.53 -96.1871 1249.01 -97.4867 1255.55 -98.3368C1256.62 -88.6114 1264.89 -81.0647 1274.87 -81.0647L1274.87 -81.0647C1284.88 -81.0994 1293.09 -88.6458 1294.18 -98.3341C1300.05 -97.5568 1305.86 -96.3972 1311.64 -94.8951C1308.95 -85.5014 1313.74 -75.3648 1322.99 -71.5877C1332.27 -67.7771 1342.77 -71.6742 1347.43 -80.2683C1352.92 -77.104 1358.25 -73.5454 1363.39 -69.5923C1357.26 -61.9645 1357.74 -50.7918 1364.81 -43.7207C1371.88 -36.6468 1382.99 -36.1804 1390.64 -42.2757C1394.17 -37.6969 1397.36 -32.928 1400.27 -28.0085C1391.75 -23.2252 1387.99 -12.7282 1391.9 -3.47835C1395.79 5.74474 1405.97 10.3649 1415.33 7.56562C1417.1 13.9766 1418.4 20.4612 1419.25 26.9984C1409.53 28.0632 1401.98 36.3386 1401.98 46.3174L1401.98 46.3226C1402.02 56.3317 1409.56 64.5405 1419.25 65.6309C1418.47 71.4938 1417.31 77.3123 1415.81 83.0867C1406.42 80.4005 1396.28 85.19 1392.5 94.44C1388.69 103.723 1392.59 114.22 1401.19 118.882C1398.02 124.365 1394.46 129.698 1390.51 134.837C1382.88 128.712 1371.71 129.183 1364.64 136.254C1357.56 143.328 1357.1 154.441 1363.19 162.089C1358.61 165.614 1353.84 168.81 1348.93 171.718C1344.14 163.2 1333.64 159.436 1324.39 163.35C1315.17 167.234 1310.55 177.418 1313.35 186.781C1306.94 188.552 1300.46 189.851 1293.92 190.701C1292.85 180.976 1284.58 173.429 1274.6 173.429L1274.59 173.429C1264.58 173.464 1256.38 181.01 1255.29 190.699C1249.42 189.921 1243.6 188.762 1237.83 187.26C1240.52 177.866 1235.73 167.728 1226.48 163.952C1217.19 160.142 1206.7 164.039 1202.03 172.633C1196.55 169.469 1191.22 165.91 1186.08 161.957C1192.2 154.329 1191.73 143.156 1184.66 136.085C1177.59 129.011 1166.48 128.545 1158.83 134.64C1155.3 130.061 1152.11 125.293 1149.2 120.373C1157.72 115.59 1161.48 105.092 1157.57 95.8417C1153.68 86.6194 1143.5 81.9998 1134.14 84.799C1132.36 78.388 1131.07 71.9034 1130.22 65.3662C1139.94 64.3014 1147.49 56.026 1147.49 46.0472ZM1311.69 83.1692C1332.09 62.7632 1332.09 29.6689 1311.69 9.26289C1291.28 -11.1431 1258.19 -11.1431 1237.78 9.26291C1217.38 29.6689 1217.38 62.7632 1237.78 83.1692C1258.19 103.575 1291.28 103.575 1311.69 83.1692Z" stroke="url(#paint0_linear_627_3)" stroke-opacity="0.3" stroke-width="3"/>
<path d="M970.882 -79.5261C977.837 -72.9756 978.175 -62.0356 971.624 -55.08C965.074 -48.1244 954.134 -47.7867 947.178 -54.3372C945.794 -55.654 944.646 -57.1397 943.802 -58.7267C939.581 -52.4801 936.103 -45.8283 933.436 -38.974C935.259 -39.1766 937.184 -39.0753 939.075 -38.6701C948.428 -36.6104 954.303 -27.3587 952.243 -18.0057C950.183 -8.65275 940.932 -2.77759 931.579 -4.83726C929.688 -5.24245 927.966 -5.95153 926.413 -6.89696C926.075 -0.684143 926.311 5.56244 927.088 11.7415C928.607 10.6948 930.296 9.81686 932.187 9.27662C941.371 6.57539 950.96 11.8428 953.661 21.0269C956.363 30.2111 951.095 39.8004 941.911 42.5017C940.088 43.0419 938.197 43.2445 936.373 43.177C939.446 49.5586 943.228 55.7039 947.685 61.5115C948.428 59.8232 949.474 58.2363 950.825 56.8181C957.375 49.8625 968.315 49.5248 975.271 56.0753C982.227 62.6258 982.564 73.5657 976.014 80.5213C974.697 81.9057 973.211 83.0537 971.624 83.8979C977.871 88.1185 984.523 91.5964 991.377 94.2638C991.175 92.4405 991.276 90.5159 991.681 88.625C993.741 79.272 1002.99 73.3969 1012.35 75.4566C1021.7 77.5162 1027.57 86.7679 1025.51 96.1209C1025.11 98.0118 1024.4 99.7338 1023.45 101.287C1029.67 101.625 1035.91 101.388 1042.09 100.612C1041.05 99.0922 1040.17 97.404 1039.63 95.5131C1036.93 86.329 1042.19 76.7396 1051.38 74.0384C1060.56 71.3372 1070.15 76.6046 1072.85 85.7887C1073.39 87.6121 1073.6 89.5029 1073.53 91.3262C1079.91 88.2536 1086.05 84.4719 1091.86 80.0149C1090.17 79.272 1088.59 78.2253 1087.17 76.8747C1080.21 70.3242 1079.88 59.3843 1086.43 52.4286C1092.98 45.473 1103.92 45.1353 1110.87 51.6858C1112.26 53.0026 1113.4 54.4883 1114.25 56.0753C1118.47 49.8287 1121.95 43.1769 1124.61 36.3226C1122.79 36.5252 1120.87 36.4239 1118.98 36.0187C1109.62 33.959 1103.75 24.7073 1105.81 15.3543C1107.87 6.00137 1117.12 0.126205 1126.47 2.18588C1128.36 2.59107 1130.08 3.30015 1131.64 4.24558C1131.98 -1.96724 1131.74 -8.21383 1130.96 -14.3929C1129.44 -13.3462 1127.76 -12.4682 1125.86 -11.928C1116.68 -9.22677 1107.09 -14.4942 1104.39 -23.6783C1101.69 -32.8625 1106.96 -42.4518 1116.14 -45.153C1117.96 -45.6933 1119.85 -45.8959 1121.68 -45.8283C1118.6 -52.21 1114.82 -58.3553 1110.37 -64.1629C1109.62 -62.4746 1108.58 -60.8876 1107.23 -59.4695C1100.68 -52.5139 1089.74 -52.1762 1082.78 -58.7267C1075.82 -65.2771 1075.49 -76.2171 1082.04 -83.1727C1083.35 -84.5571 1084.84 -85.7051 1086.43 -86.5493C1080.18 -90.7699 1073.53 -94.2477 1066.67 -96.9152C1066.88 -95.0919 1066.78 -93.1673 1066.37 -91.2764C1064.31 -81.9234 1055.06 -76.0483 1045.71 -78.1079C1036.35 -80.1676 1030.48 -89.4193 1032.54 -98.7723C1032.94 -100.663 1033.65 -102.385 1034.6 -103.938C1028.38 -104.276 1022.14 -104.04 1015.96 -103.263C1017 -101.744 1017.88 -100.055 1018.42 -98.1645C1021.12 -88.9803 1015.86 -79.391 1006.67 -76.6898C997.489 -73.9886 987.899 -79.256 985.198 -88.4401C984.658 -90.2634 984.455 -92.1543 984.523 -93.9776C978.141 -90.905 971.996 -87.1233 966.188 -82.6662C967.876 -81.9234 969.463 -80.8767 970.882 -79.5261ZM1055.46 -29.4522C1070.93 -14.8656 1071.67 9.51295 1057.12 25.0112C1042.53 40.4757 1018.15 41.2186 1002.65 26.6657C987.19 12.0791 986.447 -12.2994 1001 -27.7977C1015.59 -43.2622 1039.97 -44.005 1055.46 -29.4522Z" fill="white"/>
<path d="M946.15 -53.2452L946.145 -53.2503C945.264 -54.0884 944.467 -54.9942 943.771 -55.9542C940.607 -51.0288 937.905 -45.868 935.697 -40.5709C936.923 -40.5444 938.164 -40.3993 939.389 -40.1368L939.397 -40.135C949.564 -37.8961 955.945 -27.8403 953.708 -17.6832C951.469 -7.51758 941.416 -1.13727 931.26 -3.37147C930.047 -3.6318 928.897 -4.00716 927.811 -4.48195C927.67 0.0934699 927.841 4.68187 928.312 9.24153C929.382 8.67275 930.532 8.18981 931.768 7.83611C941.751 4.90302 952.167 10.6314 955.1 20.6037C958.037 30.5875 952.308 41.0072 942.334 43.9407C941.154 44.2902 939.953 44.5091 938.76 44.6144C941.243 49.4785 944.15 54.196 947.465 58.7191C948.107 57.6854 948.864 56.7027 949.736 55.7866C956.854 48.232 968.741 47.8648 976.299 54.9833C983.857 62.1007 984.225 73.9899 977.106 81.5497L977.101 81.5552C976.263 82.4362 975.357 83.233 974.397 83.9285C979.322 87.0924 984.483 89.7949 989.78 92.0032C989.807 90.7766 989.952 89.5356 990.214 88.3107L990.216 88.3024C992.455 78.1355 1002.51 71.7549 1012.67 73.9917C1022.83 76.2303 1029.21 86.2836 1026.98 96.4393C1026.72 97.6528 1026.34 98.8029 1025.87 99.8887C1030.44 100.03 1035.03 99.8588 1039.59 99.3881C1039.02 98.3174 1038.54 97.1672 1038.19 95.9309C1035.25 85.9487 1040.98 75.5323 1050.95 72.5994C1060.94 69.6632 1071.36 75.3904 1074.29 85.3626L946.15 -53.2452ZM946.15 -53.2452C953.71 -46.1257 965.599 -46.494 972.716 -54.0516C979.835 -61.6104 979.468 -73.4974 971.913 -80.6152M946.15 -53.2452L966.188 -82.6662C966.695 -82.4434 967.192 -82.1933 967.678 -81.9158C968.111 -82.2429 968.545 -82.5663 968.981 -82.8859M1111.9 50.5938L1111.91 50.5989C1112.79 51.437 1113.58 52.3428 1114.28 53.3028C1117.44 48.3774 1120.15 43.2166 1122.35 37.9195C1121.13 37.893 1119.89 37.7479 1118.66 37.4854L1118.65 37.4836C1108.49 35.2447 1102.11 25.1889 1104.34 15.0317C1106.58 4.8662 1116.63 -1.5141 1126.79 0.720098C1128 0.980427 1129.15 1.35578 1130.24 1.83057C1130.38 -2.74485 1130.21 -7.33326 1129.74 -11.8929C1128.67 -11.3241 1127.52 -10.841 1126.28 -10.4873C1116.3 -7.55463 1105.88 -13.2829 1102.95 -23.2551C1100.01 -33.238 1105.74 -43.6566 1115.71 -46.5912C1116.89 -46.9412 1118.1 -47.1604 1119.29 -47.2658C1116.81 -52.1299 1113.9 -56.8473 1110.59 -61.3705C1109.94 -60.3367 1109.19 -59.3541 1108.31 -58.438C1101.2 -50.8834 1089.31 -50.5162 1081.75 -57.6347C1074.19 -64.7521 1073.83 -76.6413 1080.94 -84.2011L1080.95 -84.2066C1081.79 -85.0876 1082.69 -85.8843 1083.65 -86.5798C1078.73 -89.7438 1073.57 -92.4463 1068.27 -94.6546C1068.24 -93.428 1068.1 -92.187 1067.84 -90.9621L1067.83 -90.9538C1065.6 -80.7869 1055.54 -74.4063 1045.38 -76.643C1035.22 -78.8816 1028.84 -88.9351 1031.07 -99.0909C1031.33 -100.304 1031.71 -101.454 1032.18 -102.54C1027.61 -102.682 1023.02 -102.51 1018.46 -102.04C1019.03 -100.969 1019.51 -99.8195 1019.86 -98.5837C1022.8 -88.601 1017.07 -78.1839 1007.1 -75.2507C997.112 -72.3144 986.693 -78.0427 983.759 -88.0163M1111.9 50.5938L985.198 -88.4401M1111.9 50.5938C1104.34 43.4744 1092.45 43.8426 1085.33 51.4002C1078.22 58.959 1078.58 70.846 1086.14 77.9638C1087.05 78.8358 1088.04 79.5931 1089.07 80.2345M1111.9 50.5938L1089.07 80.2345M983.759 -88.0163C983.759 -88.0165 983.759 -88.0167 983.759 -88.0169L985.198 -88.4401M983.759 -88.0163C983.759 -88.0155 983.76 -88.0148 983.76 -88.014L985.198 -88.4401M983.759 -88.0163C983.41 -89.1966 983.191 -90.3982 983.085 -91.5906M985.198 -88.4401C984.82 -89.7147 984.608 -91.0224 984.537 -92.3169C984.052 -92.079 983.568 -91.8369 983.085 -91.5906M983.085 -91.5906C983.037 -92.1413 983.012 -92.69 983.01 -93.2339C983.513 -93.4862 984.017 -93.7342 984.523 -93.9776L967.542 -83.6882C968.031 -83.4447 968.511 -83.1772 968.981 -82.8859M983.085 -91.5906C978.221 -89.1079 973.504 -86.2012 968.981 -82.8859M968.981 -82.8859C970.014 -82.2445 970.997 -81.4872 971.913 -80.6152M971.913 -80.6152C971.912 -80.6161 971.911 -80.6171 971.91 -80.6181L970.882 -79.5261L971.916 -80.6123C971.915 -80.6132 971.914 -80.6142 971.913 -80.6152ZM1089.07 80.2345C1084.55 83.5498 1079.83 86.4565 1074.97 88.9392C1074.86 87.7469 1074.64 86.5456 1074.29 85.3655L1089.07 80.2345ZM1015.96 -103.263C1016.27 -102.811 1016.57 -102.343 1016.84 -101.86L1017.63 -103.46C1017.07 -103.398 1016.51 -103.333 1015.96 -103.263ZM1056.49 -30.5434L1056.49 -30.5457C1040.39 -45.6648 1015.06 -44.893 999.909 -28.8269L999.907 -28.8245C984.788 -12.7231 985.559 12.6029 1001.63 27.7569L1001.63 27.7592C1017.73 42.8784 1043.06 42.1065 1058.21 26.0405L1058.21 26.038C1073.33 9.93663 1072.56 -15.3894 1056.49 -30.5434Z" stroke="url(#paint1_linear_627_3)" stroke-opacity="0.3" stroke-width="3"/>
<path d="M998.13 139.585C991.005 147.588 979.019 148.769 970.476 142.658C968.45 147.047 966.863 151.538 965.749 156.164C976.216 156.704 984.826 165.112 985.434 175.782C986.042 186.519 978.411 195.771 968.079 197.526C969.699 201.983 971.793 206.305 974.291 210.425C982.091 203.435 994.112 203.233 1002.08 210.391C1010.08 217.515 1011.26 229.502 1005.15 238.045C1009.54 240.071 1014.03 241.658 1018.66 242.772C1019.2 232.305 1027.61 223.694 1038.28 223.087C1048.95 222.479 1058.27 230.11 1060.02 240.442C1064.48 238.821 1068.8 236.728 1072.92 234.229C1065.93 226.429 1065.73 214.409 1072.89 206.44C1080.01 198.438 1092 197.256 1100.54 203.368C1102.57 198.978 1104.15 194.487 1105.27 189.862C1094.8 189.321 1086.19 180.914 1085.58 170.244C1084.97 159.507 1092.6 150.255 1102.94 148.499C1101.32 144.042 1099.22 139.72 1096.72 135.601C1088.92 142.59 1076.9 142.793 1068.94 135.635C1060.93 128.51 1059.75 116.523 1065.86 107.981C1061.47 105.955 1056.98 104.368 1052.36 103.254C1051.82 113.721 1043.41 122.331 1032.74 122.939C1022 123.547 1012.75 115.916 1010.99 105.584C1006.54 107.204 1002.22 109.298 998.096 111.796C1005.12 119.63 1005.29 131.617 998.13 139.585ZM1053.77 152.551C1065.09 162.647 1066.07 179.968 1055.94 191.246C1045.84 202.557 1028.52 203.537 1017.24 193.407C1005.93 183.311 1004.95 165.99 1015.08 154.712C1025.21 143.434 1042.5 142.489 1053.77 152.551Z" fill="white"/>
<path d="M986.932 175.697L986.931 175.696C986.315 164.877 978.028 156.23 967.635 154.834C968.542 151.45 969.71 148.136 971.126 144.876C980.139 150.27 992.022 148.7 999.249 140.584C1006.51 132.497 1006.73 120.564 1000.37 112.195C1003.45 110.424 1006.63 108.885 1009.89 107.605C1012.47 117.765 1021.93 125.053 1032.82 124.436L1032.82 124.436C1043.64 123.82 1052.29 115.533 1053.69 105.14C1057.07 106.047 1060.39 107.215 1063.64 108.631C1058.25 117.644 1059.82 129.527 1067.94 136.754C1076.02 144.015 1087.98 144.207 1096.33 137.874C1098.1 140.952 1099.64 144.135 1100.92 147.395C1090.76 149.978 1083.47 159.437 1084.08 170.329L1084.08 170.329C1084.7 181.148 1092.99 189.795 1103.38 191.192C1102.47 194.575 1101.31 197.89 1099.89 201.15C1090.88 195.756 1079 197.325 1071.77 205.44C1064.51 213.527 1064.31 225.488 1070.65 233.83C1067.57 235.601 1064.39 237.141 1061.13 238.421C1058.53 228.259 1049.02 220.972 1038.19 221.589C1027.37 222.205 1018.73 230.492 1017.33 240.886C1013.95 239.979 1010.63 238.811 1007.37 237.395C1012.76 228.382 1011.2 216.5 1003.08 209.273C994.993 202.011 983.033 201.818 974.691 208.152C972.92 205.074 971.38 201.89 970.1 198.63C980.26 196.047 987.548 186.588 986.932 175.697ZM1054.77 151.432L1054.77 151.432C1042.88 140.819 1024.65 141.818 1013.96 153.71C1003.28 165.606 1004.31 183.877 1016.24 194.525C1028.14 205.208 1046.41 204.173 1057.05 192.246C1067.74 180.349 1066.7 162.078 1054.77 151.432Z" stroke="url(#paint2_linear_627_3)" stroke-opacity="0.3" stroke-width="3"/>
<path d="M814.715 21.1771C822.38 24.0472 826.803 32.3196 824.71 40.4233C822.616 48.3919 814.985 53.3892 807.05 52.41C807.422 61.0201 809.718 69.529 813.972 77.2275C820.32 72.4328 829.369 72.973 835.143 78.7469C840.917 84.5208 841.356 93.5361 836.595 99.9177C844.361 104.172 852.937 106.468 861.581 106.806C860.535 98.871 865.566 91.2063 873.5 89.0791C881.604 86.9181 889.877 91.3413 892.78 98.9723C896.866 96.575 900.681 93.6374 904.193 90.1258C907.333 86.9856 910.034 83.5416 912.33 79.8949C904.396 77.1599 899.837 68.7524 901.998 60.5137C904.159 52.1399 912.533 47.0075 920.907 48.7633C920.738 39.748 918.408 30.8002 914.019 22.6965C907.671 28.5717 897.778 28.4029 891.599 22.2238C885.42 16.0448 885.251 6.15155 891.126 -0.196319C882.955 -4.65333 873.939 -6.91561 864.89 -7.05067C866.646 1.32311 861.514 9.69691 853.174 11.8917C844.935 14.0526 836.527 9.49432 833.759 1.59325C830.18 3.82176 826.803 6.52298 823.697 9.62938C820.084 13.1747 817.112 17.024 814.715 21.1771ZM873.771 40.0519C879.207 45.4881 879.207 54.3346 873.771 59.7708C868.334 65.207 859.488 65.207 854.052 59.7708C848.615 54.3346 848.615 45.4881 854.052 40.0519C859.454 34.5819 868.301 34.5819 873.771 40.0519Z" fill="white"/>
<path d="M852.988 38.9943C846.969 45.0166 846.97 54.8105 852.991 60.8315C859.013 66.8535 868.809 66.8535 874.831 60.8315C880.853 54.8095 880.853 45.0132 874.831 38.9912C868.78 32.9403 858.982 32.9296 852.988 38.9943ZM852.988 38.9943C852.989 38.9933 852.99 38.9923 852.991 38.9912L854.052 40.0519L852.984 38.9978C852.986 38.9967 852.987 38.9955 852.988 38.9943ZM826.16 40.8044L826.162 40.7985C828.296 32.5394 824.234 24.1219 816.88 20.4824C819.047 16.9962 821.654 13.7359 824.747 10.7L824.752 10.695L824.757 10.69C827.35 8.09711 830.132 5.79797 833.059 3.83187C836.642 11.3788 845.179 15.5394 853.554 13.3426L853.555 13.3423C862.051 11.1066 867.5 3.0065 866.646 -5.49612C874.266 -5.14075 881.817 -3.23085 888.79 0.273379C883.659 7.19709 884.255 17.002 890.538 23.2845C896.819 29.5659 906.622 30.1635 913.545 25.0348C917.003 31.9476 918.956 39.4342 919.345 47.0064C910.845 46.1572 902.749 51.6073 900.547 60.136C898.352 68.5072 902.509 77.043 910.083 80.5995C908.064 83.6009 905.754 86.4431 903.132 89.0651C900.127 92.0702 896.897 94.6411 893.463 96.8023C889.794 89.4849 881.378 85.4259 873.114 87.6297L873.112 87.6302C865.046 89.7927 859.721 97.1977 859.951 105.215C852.643 104.708 845.425 102.759 838.77 99.3704C842.899 92.5446 842.097 83.579 836.204 77.6862C830.324 71.8062 821.328 70.8928 814.511 75.0491C811.128 68.4572 809.179 61.2997 808.647 54.0278C816.653 54.2032 824.03 48.9119 826.16 40.8044Z" stroke="url(#paint3_linear_627_3)" stroke-opacity="0.3" stroke-width="3"/>
<path d="M274.843 1954.28L274.843 1954.29C274.877 1964.3 282.424 1972.51 292.112 1973.6C291.335 1979.46 290.175 1985.28 288.673 1991.05C279.279 1988.37 269.143 1993.15 265.366 2002.4C261.555 2011.69 265.452 2022.19 274.046 2026.85C270.882 2032.33 267.323 2037.66 263.37 2042.8C255.742 2036.68 244.57 2037.15 237.499 2044.22C230.431 2051.29 229.923 2062.43 236.048 2070.06C231.471 2073.58 226.704 2076.78 221.787 2079.68C217.003 2071.17 206.506 2067.4 197.256 2071.32C188.033 2075.2 183.413 2085.38 186.212 2094.75C179.801 2096.52 173.317 2097.82 166.78 2098.67C165.715 2088.94 157.439 2081.39 147.461 2081.39L147.455 2081.39C137.446 2081.43 129.238 2088.98 128.147 2098.66C122.284 2097.89 116.466 2096.73 110.691 2095.23C113.377 2085.83 108.589 2075.69 99.3407 2071.92C90.0567 2068.11 79.5585 2072 74.8958 2080.6C69.4126 2077.43 64.0804 2073.88 58.9413 2069.92C65.0662 2062.29 64.5949 2051.12 57.5239 2044.05C50.45 2036.98 39.337 2036.51 31.6891 2042.61C28.1644 2038.03 24.968 2033.26 22.06 2028.34C30.5772 2023.56 34.3415 2013.06 30.4283 2003.81C26.5449 1994.59 16.3603 1989.97 6.99651 1992.76C5.22629 1986.35 3.92676 1979.87 3.0766 1973.33C12.802 1972.27 20.3487 1963.99 20.3487 1954.01L20.3487 1954.01C20.314 1944 12.7676 1935.79 3.07934 1934.7C3.85664 1928.84 5.01624 1923.02 6.5183 1917.24C15.9129 1919.93 26.0506 1915.14 29.8268 1905.89C33.6356 1896.61 29.7384 1886.11 21.1451 1881.45C24.3094 1875.96 27.868 1870.63 31.8211 1865.49C39.4489 1871.62 50.6217 1871.15 57.6927 1864.08C64.7666 1857 65.233 1845.89 59.1377 1838.24C63.7165 1834.72 68.4854 1831.52 73.4049 1828.61C78.1885 1837.13 88.6862 1840.89 97.9363 1836.98C107.159 1833.1 111.778 1822.91 108.979 1813.55C115.39 1811.78 121.875 1810.48 128.412 1809.63C129.477 1819.35 137.752 1826.9 147.731 1826.9L147.736 1826.9C157.745 1826.87 165.954 1819.32 167.044 1809.63C172.907 1810.41 178.726 1811.57 184.5 1813.07C181.814 1822.46 186.603 1832.6 195.852 1836.38C205.136 1840.19 215.633 1836.29 220.296 1827.7C225.779 1830.86 231.111 1834.42 236.25 1838.37C230.125 1846 230.596 1857.17 237.668 1864.24C244.741 1871.32 255.854 1871.79 263.502 1865.69C267.027 1870.27 270.223 1875.04 273.131 1879.96C264.614 1884.74 260.85 1895.24 264.764 1904.49C268.647 1913.71 278.832 1918.33 288.195 1915.53C289.965 1921.94 291.265 1928.43 292.115 1934.96C282.389 1936.03 274.843 1944.3 274.843 1954.28ZM110.643 1917.16C90.2365 1937.57 90.2365 1970.66 110.643 1991.07C131.049 2011.47 164.143 2011.47 184.549 1991.07C204.955 1970.66 204.955 1937.57 184.549 1917.16C164.143 1896.75 131.049 1896.75 110.643 1917.16Z" stroke="url(#paint4_linear_627_3)" stroke-opacity="0.3" stroke-width="3"/>
<path d="M474.18 2056.58L474.186 2056.58C475.067 2057.42 475.863 2058.32 476.559 2059.28C479.723 2054.36 482.425 2049.2 484.634 2043.9C483.407 2043.87 482.166 2043.73 480.941 2043.47L480.933 2043.47C470.766 2041.23 464.385 2031.17 466.622 2021.01C468.861 2010.85 478.914 2004.47 489.07 2006.7C490.283 2006.96 491.433 2007.34 492.519 2007.81C492.661 2003.24 492.489 1998.65 492.018 1994.09C490.948 1994.66 489.798 1995.14 488.562 1995.49C478.579 1998.43 468.163 1992.7 465.23 1982.73C462.293 1972.74 468.022 1962.32 477.996 1959.39C479.176 1959.04 480.377 1958.82 481.57 1958.72C479.087 1953.85 476.18 1949.13 472.865 1944.61C472.223 1945.64 471.466 1946.63 470.594 1947.54C463.476 1955.1 451.589 1955.47 444.031 1948.35C436.473 1941.23 436.105 1929.34 443.224 1921.78L443.229 1921.77C444.067 1920.89 444.973 1920.1 445.933 1919.4C441.008 1916.24 435.847 1913.54 430.55 1911.33C430.523 1912.55 430.378 1913.79 430.116 1915.02L430.114 1915.03C427.875 1925.19 417.819 1931.58 407.662 1929.34C397.497 1927.1 391.116 1917.05 393.35 1906.89C393.611 1905.68 393.986 1904.53 394.461 1903.44C389.886 1903.3 385.297 1903.47 380.737 1903.94C381.306 1905.01 381.789 1906.16 382.143 1907.4C385.076 1917.38 379.347 1927.8 369.375 1930.73C359.392 1933.67 348.974 1927.94 346.039 1917.97L474.18 2056.58ZM474.18 2056.58C466.62 2049.46 454.731 2049.82 447.614 2057.38C440.495 2064.94 440.862 2076.83 448.417 2083.95M474.18 2056.58L454.142 2086C453.635 2085.77 453.138 2085.52 452.652 2085.25C452.22 2085.57 451.785 2085.9 451.349 2086.22M308.429 1952.74L308.424 1952.73C307.543 1951.89 306.746 1950.99 306.051 1950.03C302.887 1954.95 300.184 1960.11 297.976 1965.41C299.202 1965.44 300.443 1965.58 301.668 1965.84L301.677 1965.85C311.843 1968.09 318.224 1978.14 315.987 1988.3C313.749 1998.46 303.695 2004.84 293.539 2002.61C292.326 2002.35 291.176 2001.97 290.09 2001.5C289.949 2006.07 290.12 2010.66 290.591 2015.22C291.662 2014.65 292.812 2014.17 294.048 2013.82C304.03 2010.88 314.447 2016.61 317.38 2026.59C320.316 2036.57 314.589 2046.99 304.616 2049.92C303.435 2050.27 302.233 2050.49 301.04 2050.6C303.522 2055.46 306.429 2060.18 309.744 2064.7C310.386 2063.67 311.143 2062.68 312.015 2061.77C319.133 2054.21 331.02 2053.85 338.579 2060.96C346.136 2068.08 346.505 2079.97 339.385 2087.53L339.38 2087.54C338.542 2088.42 337.636 2089.21 336.676 2089.91C341.602 2093.07 346.762 2095.78 352.059 2097.98C352.086 2096.76 352.231 2095.52 352.494 2094.29L352.495 2094.28C354.734 2084.12 364.79 2077.74 374.947 2079.97C385.113 2082.21 391.493 2092.27 389.259 2102.42C388.999 2103.63 388.623 2104.78 388.148 2105.87C392.724 2106.01 397.312 2105.84 401.872 2105.37C401.303 2104.3 400.82 2103.15 400.467 2101.91C397.533 2091.93 403.261 2081.51 413.234 2078.58C423.218 2075.64 433.637 2081.37 436.571 2091.35M308.429 1952.74L435.132 2091.77M308.429 1952.74C315.989 1959.86 327.878 1959.49 334.996 1951.93C342.114 1944.37 341.747 1932.48 334.192 1925.37C333.276 1924.49 332.294 1923.74 331.26 1923.1M308.429 1952.74L331.26 1923.1M436.571 2091.35C436.571 2091.35 436.571 2091.35 436.571 2091.35L435.132 2091.77M436.571 2091.35C436.571 2091.35 436.57 2091.34 436.57 2091.34L435.132 2091.77M436.571 2091.35C436.92 2092.53 437.139 2093.73 437.245 2094.92M435.132 2091.77C435.51 2093.04 435.722 2094.35 435.793 2095.65C436.278 2095.41 436.762 2095.17 437.245 2094.92M437.245 2094.92C437.293 2095.47 437.318 2096.02 437.32 2096.56C436.817 2096.82 436.313 2097.06 435.807 2097.31L452.788 2087.02C452.299 2086.77 451.819 2086.51 451.349 2086.22M437.245 2094.92C442.109 2092.44 446.826 2089.53 451.349 2086.22M451.349 2086.22C450.316 2085.57 449.333 2084.82 448.417 2083.95M448.417 2083.95C448.418 2083.95 448.419 2083.95 448.42 2083.95L449.448 2082.86L448.414 2083.94C448.415 2083.94 448.416 2083.94 448.417 2083.95ZM331.26 1923.1C335.783 1919.78 340.5 1916.87 345.365 1914.39C345.47 1915.58 345.689 1916.78 346.038 1917.96L331.26 1923.1ZM404.372 2106.59C404.06 2106.14 403.764 2105.67 403.486 2105.19L402.702 2106.79C403.259 2106.73 403.816 2106.66 404.372 2106.59ZM363.837 2033.87L363.84 2033.88C379.941 2048.99 405.267 2048.22 420.421 2032.16L420.423 2032.15C435.542 2016.05 434.771 1990.73 418.705 1975.57L418.702 1975.57C402.601 1960.45 377.275 1961.22 362.121 1977.29L362.118 1977.29C346.999 1993.39 347.771 2018.72 363.837 2033.87Z" stroke="url(#paint5_linear_627_3)" stroke-opacity="0.3" stroke-width="3"/>
<path d="M433.399 1832.63L433.399 1832.63C434.015 1843.45 442.302 1852.1 452.695 1853.5C451.788 1856.88 450.62 1860.19 449.204 1863.45C440.191 1858.06 428.308 1859.63 421.081 1867.75C413.82 1875.83 413.597 1887.77 419.961 1896.14C416.883 1897.91 413.7 1899.45 410.44 1900.73C407.857 1890.57 398.398 1883.28 387.506 1883.89L387.506 1883.89C376.687 1884.51 368.04 1892.8 366.643 1903.19C363.259 1902.28 359.945 1901.12 356.685 1899.7C362.079 1890.69 360.51 1878.8 352.393 1871.58C344.307 1864.32 332.347 1864.12 324.005 1870.46C322.234 1867.38 320.694 1864.2 319.414 1860.94C329.574 1858.35 336.862 1848.89 336.246 1838L336.246 1838C335.63 1827.18 327.343 1818.53 316.949 1817.14C317.856 1813.75 319.024 1810.44 320.44 1807.18C329.453 1812.57 341.335 1811.01 348.562 1802.89C355.824 1794.8 356.017 1782.84 349.683 1774.5C352.761 1772.73 355.945 1771.19 359.205 1769.91C361.795 1780.07 371.313 1787.36 382.139 1786.74C392.958 1786.12 401.605 1777.84 403.001 1767.44C406.385 1768.35 409.699 1769.52 412.959 1770.94C407.566 1779.95 409.135 1791.83 417.25 1799.06C425.337 1806.32 437.297 1806.51 445.64 1800.18C447.411 1803.26 448.95 1806.44 450.23 1809.7C440.07 1812.28 432.782 1821.74 433.399 1832.63ZM365.556 1856.9L365.557 1856.9C377.451 1867.51 395.685 1866.51 406.366 1854.62C417.052 1842.72 416.017 1824.45 404.09 1813.81C392.193 1803.12 373.923 1804.16 363.277 1816.08C352.592 1827.98 353.628 1846.25 365.556 1856.9Z" stroke="url(#paint6_linear_627_3)" stroke-opacity="0.3" stroke-width="3"/>
<path d="M516.096 1884.23C522.115 1878.21 522.114 1868.41 516.093 1862.39C510.071 1856.37 500.275 1856.37 494.253 1862.39C488.231 1868.41 488.231 1878.21 494.253 1884.23C500.304 1890.28 510.102 1890.29 516.096 1884.23ZM516.096 1884.23C516.095 1884.23 516.094 1884.23 516.093 1884.23L515.032 1883.17L516.1 1884.22C516.098 1884.23 516.097 1884.23 516.096 1884.23ZM542.924 1882.42L542.922 1882.42C540.788 1890.68 544.85 1899.1 552.204 1902.74C550.037 1906.23 547.43 1909.49 544.337 1912.52L544.332 1912.53L544.327 1912.53C541.734 1915.13 538.952 1917.42 536.025 1919.39C532.442 1911.84 523.905 1907.68 515.53 1909.88L515.529 1909.88C507.033 1912.12 501.584 1920.22 502.438 1928.72C494.818 1928.36 487.267 1926.45 480.294 1922.95C485.425 1916.03 484.829 1906.22 478.546 1899.94C472.265 1893.66 462.462 1893.06 455.539 1898.19C452.081 1891.28 450.128 1883.79 449.739 1876.22C458.239 1877.07 466.335 1871.62 468.537 1863.09C470.732 1854.72 466.575 1846.18 459.001 1842.62C461.019 1839.62 463.33 1836.78 465.952 1834.16C468.957 1831.15 472.187 1828.58 475.621 1826.42C479.29 1833.74 487.706 1837.8 495.97 1835.59L495.972 1835.59C504.038 1833.43 509.363 1826.02 509.133 1818.01C516.441 1818.52 523.659 1820.46 530.314 1823.85C526.185 1830.68 526.987 1839.64 532.88 1845.54C538.76 1851.42 547.756 1852.33 554.573 1848.17C557.956 1854.77 559.905 1861.92 560.437 1869.19C552.431 1869.02 545.054 1874.31 542.924 1882.42Z" stroke="url(#paint7_linear_627_3)" stroke-opacity="0.3" stroke-width="3"/>
<defs>
<linearGradient id="paint0_linear_627_3" x1="1171.33" y1="149.588" x2="1378.14" y2="-57.2239" gradientUnits="userSpaceOnUse">
<stop stop-color="#007DB6"/>
<stop offset="1" stop-color="#D42957"/>
</linearGradient>
<linearGradient id="paint1_linear_627_3" x1="956.937" y1="70.7632" x2="1101.11" y2="-73.4146" gradientUnits="userSpaceOnUse">
<stop stop-color="#007DB6"/>
<stop offset="1" stop-color="#D42957"/>
</linearGradient>
<linearGradient id="paint2_linear_627_3" x1="986.194" y1="222.327" x2="1084.82" y2="123.699" gradientUnits="userSpaceOnUse">
<stop stop-color="#007DB6"/>
<stop offset="1" stop-color="#D42957"/>
</linearGradient>
<linearGradient id="paint3_linear_627_3" x1="825.249" y1="88.5717" x2="902.571" y2="11.2492" gradientUnits="userSpaceOnUse">
<stop stop-color="#007DB6"/>
<stop offset="1" stop-color="#D42957"/>
</linearGradient>
<linearGradient id="paint4_linear_627_3" x1="251.002" y1="1850.74" x2="44.1895" y2="2057.55" gradientUnits="userSpaceOnUse">
<stop stop-color="#007DB6"/>
<stop offset="1" stop-color="#D42957"/>
</linearGradient>
<linearGradient id="paint5_linear_627_3" x1="463.394" y1="1932.57" x2="319.216" y2="2076.74" gradientUnits="userSpaceOnUse">
<stop stop-color="#007DB6"/>
<stop offset="1" stop-color="#D42957"/>
</linearGradient>
<linearGradient id="paint6_linear_627_3" x1="434.136" y1="1786" x2="335.508" y2="1884.63" gradientUnits="userSpaceOnUse">
<stop stop-color="#007DB6"/>
<stop offset="1" stop-color="#D42957"/>
</linearGradient>
<linearGradient id="paint7_linear_627_3" x1="543.835" y1="1834.65" x2="466.513" y2="1911.97" gradientUnits="userSpaceOnUse">
<stop stop-color="#007DB6"/>
<stop offset="1" stop-color="#D42957"/>
</linearGradient>
</defs>
</svg>
