<svg width="397" height="153" viewBox="0 0 397 153" fill="none" xmlns="http://www.w3.org/2000/svg">
<path d="M20.2278 128.004L24.4068 132.183C26.1275 133.904 28.8667 133.904 30.5875 132.183L34.5909 128.179C36.101 126.669 38.4538 126.494 40.2097 127.688C40.9472 128.215 41.6847 128.706 42.4221 129.163C44.2131 130.322 44.9155 132.569 44.1078 134.536L41.9305 139.768C41.0174 141.981 42.071 144.544 44.2834 145.492L49.7266 147.74C51.939 148.653 54.5026 147.6 55.4508 145.387L57.6281 140.155C58.4358 138.188 60.5428 137.099 62.6148 137.556C63.4927 137.767 64.4058 137.942 65.2837 138.083C67.3908 138.434 68.9008 140.26 68.9008 142.367V148.021C68.9008 150.444 70.8674 152.376 73.2554 152.376H79.1552C81.5783 152.376 83.5098 150.409 83.5098 148.021V142.367C83.5098 140.26 85.055 138.434 87.1269 138.083C88.0048 137.942 88.8828 137.767 89.7607 137.556C91.8327 137.099 93.9397 138.188 94.7474 140.155L96.9247 145.387C97.8378 147.6 100.401 148.688 102.614 147.74L108.057 145.492C110.269 144.579 111.358 142.016 110.41 139.803L108.233 134.571C107.425 132.604 108.127 130.357 109.918 129.233C110.691 128.741 111.428 128.25 112.166 127.723C113.922 126.494 116.275 126.704 117.785 128.215L121.788 132.218C123.509 133.939 126.248 133.939 127.969 132.218L132.218 128.004C133.939 126.283 133.939 123.544 132.218 121.823L128.215 117.82C126.704 116.31 126.529 113.957 127.723 112.201C128.25 111.463 128.741 110.726 129.198 109.989C130.357 108.198 132.604 107.495 134.571 108.303L139.803 110.48C142.016 111.393 144.579 110.34 145.528 108.127L147.775 102.684C148.688 100.472 147.635 97.908 145.422 96.9598L140.19 94.7826C138.223 93.9749 137.134 91.8678 137.591 89.7959C137.802 88.9179 137.977 88.0048 138.118 87.1269C138.469 85.0198 140.295 83.5098 142.402 83.5098H148.056C150.479 83.5098 152.411 81.5432 152.411 79.1552V73.2203C152.411 70.7972 150.444 68.8657 148.056 68.8657H142.402C140.295 68.8657 138.469 67.3205 138.118 65.2486C137.977 64.3707 137.802 63.4927 137.591 62.6148C137.134 60.5428 138.223 58.4358 140.19 57.6281L145.422 55.4508C147.635 54.5377 148.723 51.9741 147.775 49.7617L145.528 44.3185C144.615 42.1061 142.051 41.0174 139.839 41.9656L134.606 44.1429C132.639 44.9506 130.392 44.2482 129.268 42.4572C128.776 41.6847 128.285 40.9472 127.758 40.2097C126.529 38.4538 126.74 36.101 128.25 34.5909L132.253 30.5875C133.974 28.8667 133.974 26.1275 132.253 24.4068L128.039 20.1927C126.318 18.4719 123.579 18.4719 121.858 20.1927L117.855 24.1961C116.345 25.7061 113.992 25.8817 112.236 24.6877C111.499 24.1609 110.761 23.6693 110.024 23.2128C108.233 22.0539 107.53 19.8064 108.338 17.8398L110.515 12.6072C111.428 10.3948 110.375 7.83124 108.162 6.88306L102.719 4.63553C100.507 3.72248 97.9431 4.776 96.995 6.98841L94.8177 12.2209C94.01 14.1875 91.9029 15.2762 89.831 14.8197C88.953 14.6089 88.04 14.4334 87.162 14.2929C85.055 13.9417 83.5449 12.1156 83.5449 10.0085V4.35459C83.5449 1.93147 81.5783 0 79.1903 0H73.2906C70.8674 0 68.936 1.96659 68.936 4.35459V10.0085C68.936 12.1156 67.3908 13.9417 65.3188 14.2929C64.4409 14.4334 63.563 14.6089 62.685 14.8197C60.6131 15.2762 58.506 14.1875 57.6983 12.2209L55.521 6.98841C54.6079 4.776 52.0444 3.68736 49.832 4.63553L44.3887 6.88306C42.1763 7.79612 41.0877 10.3597 42.0358 12.5721L44.2131 17.8047C45.0208 19.7712 44.3185 22.0188 42.5275 23.1425C41.7549 23.6342 41.0174 24.1258 40.28 24.6526C38.5241 25.8817 36.1712 25.671 34.6611 24.1609L30.5524 20.1927C28.8316 18.4719 26.0924 18.4719 24.3717 20.1927L20.1927 24.3717C18.4719 26.0924 18.4719 28.8316 20.1927 30.5524L24.1961 34.5558C25.7061 36.0658 25.8817 38.4187 24.6877 40.1746C24.1609 40.9121 23.6693 41.6495 23.2128 42.387C22.0539 44.178 19.8064 44.8804 17.8398 44.0727L12.6072 41.8954C10.3948 40.9823 7.83124 42.0358 6.88306 44.2482L4.63553 49.6915C3.72248 51.9039 4.776 54.4675 6.98841 55.4157L12.2209 57.593C14.1875 58.4007 15.2762 60.5077 14.8197 62.5797C14.6089 63.4576 14.4334 64.3707 14.2929 65.2486C13.9417 67.3557 12.1156 68.8657 10.0085 68.8657H4.35459C1.93147 68.8657 0 70.8323 0 73.2203V79.1201C0 81.5432 1.96659 83.4747 4.35459 83.4747H10.0085C12.1156 83.4747 13.9417 85.0198 14.2929 87.0918C14.4334 87.9697 14.6089 88.8477 14.8197 89.7256C15.2762 91.7976 14.1875 93.9046 12.2209 94.7123L6.98841 96.8896C4.776 97.8027 3.68736 100.366 4.63553 102.579L6.88306 108.022C7.79612 110.234 10.3597 111.323 12.5721 110.375L17.8047 108.197C19.7712 107.39 22.0188 108.092 23.1425 109.883C23.6342 110.656 24.1258 111.393 24.6526 112.131C25.8817 113.887 25.671 116.239 24.1609 117.749L20.1575 121.753C18.507 123.509 18.507 126.283 20.2278 128.004ZM39.6478 39.1913C59.9107 19.1742 92.535 19.1742 112.763 39.1913C133.271 59.4542 133.271 92.8862 112.763 113.149C92.4999 133.166 59.8756 133.166 39.6478 113.149C19.1391 92.8862 19.1391 59.4542 39.6478 39.1913Z" fill="url(#paint0_linear_67_21)" fill-opacity="0.8"/>
<path fill-rule="evenodd" clip-rule="evenodd" d="M145.885 86.2842H77.2304C76.0715 86.2842 75.018 86.9866 74.5965 88.1104C69.7854 99.3831 58.5829 107.285 45.5542 107.285C28.2061 107.285 14.1239 93.3078 13.9835 75.9948C13.843 58.6818 27.8198 44.3889 45.1328 44.1782C58.3371 44.0026 69.7152 51.9392 74.5614 63.3524C75.018 64.406 76.0715 65.1083 77.2304 65.1083H145.85C150.24 52.8874 161.899 44.1431 175.595 44.1431C186.727 44.1431 196.525 49.9024 202.144 58.6115C202.187 58.6793 202.218 58.7497 202.238 58.8208C202.967 59.991 202.858 61.8684 202.77 63.393V63.3932V63.3934V63.3936V63.3938V63.394C202.744 63.8472 202.72 64.2691 202.72 64.6321V69.8046H194.418V67.0587C194.418 66.1434 194.067 65.2707 193.364 64.4405C192.662 63.6103 191.651 62.876 190.331 62.2374C189.033 61.5988 187.436 61.0986 185.542 60.7367C183.668 60.3535 181.54 60.162 179.156 60.162C177.028 60.162 175.082 60.317 173.319 60.627C173.179 60.7518 173.047 60.888 172.926 61.0346L163.023 73.5365C162.04 74.7657 162.04 76.5215 163.023 77.7858L172.961 90.3579C173.628 91.1656 174.612 91.6572 175.665 91.6572H191.915C192.493 91.2565 192.976 90.8265 193.364 90.3672C194.067 89.537 194.418 88.6643 194.418 87.749V83.1512C192.438 83.1512 190.661 83.2044 189.086 83.3108C187.532 83.4172 186.201 83.5237 185.095 83.6301C183.796 83.7791 182.647 83.9388 181.646 84.109L182.476 76.3821C185.733 76.1267 188.798 75.999 191.672 75.999C195.525 75.999 199.207 76.1905 202.72 76.5737V90.1756C202.72 91.0007 202.572 91.7932 202.277 92.5533C202.261 92.6205 202.234 92.6874 202.197 92.7521C201.884 93.4888 201.43 94.1945 200.836 94.8693C200.622 95.108 200.396 95.3413 200.157 95.569C194.368 102.698 185.526 107.249 175.63 107.249C161.899 107.249 150.24 98.5052 145.885 86.2842ZM37.5123 92.2893C37.6879 93.2024 38.7063 93.6238 39.4438 93.097C41.1645 91.8679 43.2716 91.1656 45.5542 91.1656C47.8369 91.1656 49.944 91.8679 51.6647 93.097C52.4022 93.6238 53.4557 93.2024 53.5962 92.2893C53.9474 90.2174 54.9306 88.2157 56.5461 86.6003C58.1615 84.9849 60.1632 84.0016 62.2351 83.6504C63.1482 83.4748 63.5696 82.4564 63.0428 81.7189C61.8488 79.9982 61.1114 77.8911 61.1114 75.6085C61.1114 73.3258 61.8137 71.2188 63.0428 69.498C63.5696 68.7605 63.1482 67.707 62.2351 67.5665C60.1632 67.2154 58.1615 66.2321 56.5461 64.6166C54.9306 63.0012 53.9474 60.9995 53.5962 58.9276C53.4206 58.0145 52.4022 57.5931 51.6647 58.1199C49.944 59.3139 47.8369 60.0514 45.5542 60.0514C43.2716 60.0514 41.1645 59.349 39.4438 58.1199C38.7063 57.5931 37.6528 58.0145 37.5123 58.9276C37.1611 60.9995 36.1778 63.0012 34.5624 64.6166C32.947 66.2321 30.9453 67.2154 28.8734 67.5665C27.9603 67.7421 27.5389 68.7605 28.0657 69.498C29.2597 71.2188 29.9971 73.3258 29.9971 75.6085C29.9971 77.8911 29.2948 79.9982 28.0657 81.7189C27.5389 82.4564 27.9603 83.5099 28.8734 83.6504C30.9453 84.0016 32.947 84.9849 34.5624 86.6003C36.1778 88.2157 37.1611 90.2174 37.5123 92.2893ZM247.932 88.643C247.4 88.1747 246.74 87.7171 245.952 87.2701C245.165 86.823 244.196 86.4292 243.047 86.0887C241.897 85.7268 240.524 85.4394 238.928 85.2266C237.352 84.9924 235.501 84.8753 233.372 84.8753C231.477 84.8753 229.679 84.9179 227.976 85.0031C226.294 85.0669 224.815 85.2798 223.538 85.6416C222.26 85.9822 221.249 86.5357 220.504 87.302C219.759 88.0683 219.387 89.1326 219.387 90.4949V94.5819C221.26 94.8799 223.325 95.1247 225.581 95.3163C227.837 95.5079 230.349 95.6036 233.116 95.6036C235.33 95.6036 237.682 95.5291 240.173 95.3801C242.685 95.2098 245.271 94.8799 247.932 94.3903V88.643ZM233.563 65.2707C234.628 65.2707 235.916 65.3239 237.427 65.4303C238.938 65.5368 240.513 65.7283 242.152 66.0051C243.792 66.2605 245.409 66.6224 247.006 67.0906C248.624 67.5377 250.071 68.1337 251.348 68.8787C252.647 69.6024 253.69 70.4752 254.477 71.4969C255.265 72.5187 255.659 73.7213 255.659 75.1049V99.8183C253.871 100.18 251.848 100.489 249.592 100.744C247.655 100.978 245.345 101.191 242.663 101.383C239.981 101.574 236.991 101.67 233.691 101.67C230.413 101.67 226.922 101.532 223.218 101.255C219.536 100.978 215.683 100.499 211.66 99.8183V88.3237C211.66 87.0891 211.947 86.0142 212.522 85.0988C213.118 84.1623 213.927 83.364 214.949 82.7041C215.97 82.0443 217.173 81.5015 218.557 81.0757C219.94 80.65 221.43 80.3094 223.027 80.054C224.623 79.7986 226.284 79.6283 228.008 79.5431C229.732 79.4367 231.456 79.3835 233.18 79.3835C235.799 79.3835 238.023 79.5538 239.854 79.8944C241.705 80.2136 243.238 80.5649 244.451 80.948C245.856 81.4163 247.016 81.9378 247.932 82.5126V77.34C247.932 76.4673 247.719 75.7222 247.293 75.1049C246.867 74.4663 246.293 73.9342 245.569 73.5085C244.845 73.0615 244.015 72.7102 243.078 72.4548C242.142 72.1781 241.163 71.9652 240.141 71.8162C239.119 71.6672 238.076 71.5714 237.012 71.5288C235.969 71.4863 234.99 71.465 234.074 71.465C233.116 71.465 232.095 71.4969 231.009 71.5608C229.924 71.6033 228.838 71.6991 227.752 71.8481C226.688 71.9971 225.656 72.21 224.655 72.4867C223.676 72.7422 222.803 73.0934 222.037 73.5404C221.271 73.9874 220.653 74.5302 220.185 75.1688C219.738 75.7861 219.515 76.5311 219.515 77.4039L211.596 75.3604C211.596 73.9342 211.947 72.6996 212.65 71.6566C213.352 70.5922 214.278 69.6876 215.428 68.9426C216.598 68.1975 217.939 67.5909 219.451 67.1226C220.962 66.633 222.527 66.2605 224.144 66.0051C225.783 65.7283 227.412 65.5368 229.03 65.4303C230.647 65.3239 232.159 65.2707 233.563 65.2707ZM293.814 72.1994C293.963 69.794 294.038 67.4844 294.038 65.2707C292.186 65.3132 290.558 65.3665 289.153 65.4303C287.769 65.4729 286.513 65.558 285.385 65.6858C284.278 65.8135 283.256 65.9838 282.32 66.1966C281.404 66.3882 280.51 66.6649 279.638 67.0268C278.786 67.3887 277.903 67.8357 276.988 68.3678C276.072 68.8787 275.072 69.5066 273.986 70.2517C273.411 69.3363 272.752 68.57 272.007 67.9527C271.283 67.3142 270.591 66.7926 269.931 66.3882C269.165 65.9199 268.388 65.5474 267.6 65.2707L264.216 71.5288C264.705 71.763 265.142 72.061 265.525 72.4229C265.865 72.7209 266.185 73.104 266.483 73.5723C266.802 74.0406 267.004 74.6154 267.089 75.2965V101.67H275.263V75.4881C275.668 75.2327 276.125 74.8921 276.636 74.4663C277.147 74.0406 277.807 73.6255 278.616 73.2211C279.425 72.7954 280.436 72.4335 281.649 72.1355C282.884 71.8162 284.438 71.6353 286.311 71.5927C286.311 72.6783 286.247 73.7107 286.119 74.6898C286.013 75.6477 285.896 76.4885 285.768 77.2123C285.598 78.0637 285.417 78.8513 285.225 79.5751H292.952C293.378 77.042 293.665 74.5834 293.814 72.1994ZM338.292 88.643C337.76 88.1747 337.1 87.7171 336.312 87.2701C335.525 86.823 334.556 86.4292 333.407 86.0887C332.257 85.7268 330.884 85.4394 329.288 85.2266C327.713 84.9924 325.861 84.8753 323.732 84.8753C321.838 84.8753 320.039 84.9179 318.336 85.0031C316.655 85.0669 315.175 85.2798 313.898 85.6416C312.621 85.9822 311.61 86.5357 310.865 87.302C310.12 88.0683 309.747 89.1326 309.747 90.4949V94.5819C311.62 94.8799 313.685 95.1247 315.941 95.3163C318.198 95.5079 320.71 95.6036 323.477 95.6036C325.691 95.6036 328.043 95.5291 330.533 95.3801C333.045 95.2098 335.631 94.8799 338.292 94.3903V88.643ZM323.924 65.2707C324.988 65.2707 326.276 65.3239 327.787 65.4303C329.299 65.5368 330.874 65.7283 332.513 66.0051C334.152 66.2605 335.77 66.6224 337.366 67.0906C338.984 67.5377 340.431 68.1337 341.708 68.8787C343.007 69.6024 344.05 70.4752 344.838 71.4969C345.625 72.5187 346.019 73.7213 346.019 75.1049V99.8183C344.231 100.18 342.209 100.489 339.952 100.744C338.015 100.978 335.706 101.191 333.024 101.383C330.342 101.574 327.351 101.67 324.052 101.67C320.773 101.67 317.282 101.532 313.579 101.255C309.896 100.978 306.043 100.499 302.02 99.8183V88.3237C302.02 87.0891 302.308 86.0142 302.882 85.0988C303.478 84.1623 304.287 83.364 305.309 82.7041C306.331 82.0443 307.533 81.5015 308.917 81.0757C310.301 80.65 311.791 80.3094 313.387 80.054C314.984 79.7986 316.644 79.6283 318.368 79.5431C320.092 79.4367 321.816 79.3835 323.541 79.3835C326.159 79.3835 328.383 79.5538 330.214 79.8944C332.066 80.2136 333.598 80.5649 334.812 80.948C336.217 81.4163 337.377 81.9378 338.292 82.5126V77.34C338.292 76.4673 338.079 75.7222 337.653 75.1049C337.228 74.4663 336.653 73.9342 335.929 73.5085C335.206 73.0615 334.375 72.7102 333.439 72.4548C332.502 72.1781 331.523 71.9652 330.501 71.8162C329.48 71.6672 328.436 71.5714 327.372 71.5288C326.329 71.4863 325.35 71.465 324.435 71.465C323.477 71.465 322.455 71.4969 321.369 71.5608C320.284 71.6033 319.198 71.6991 318.113 71.8481C317.048 71.9971 316.016 72.21 315.016 72.4867C314.036 72.7422 313.164 73.0934 312.397 73.5404C311.631 73.9874 311.014 74.5302 310.545 75.1688C310.098 75.7861 309.875 76.5311 309.875 77.4039L301.956 75.3604C301.956 73.9342 302.308 72.6996 303.01 71.6566C303.712 70.5922 304.638 69.6876 305.788 68.9426C306.959 68.1975 308.3 67.5909 309.811 67.1226C311.322 66.633 312.887 66.2605 314.505 66.0051C316.144 65.7283 317.772 65.5368 319.39 65.4303C321.008 65.3239 322.519 65.2707 323.924 65.2707ZM381.429 65.4942C379.556 65.3452 377.714 65.2707 375.905 65.2707C372.627 65.2707 369.7 65.5048 367.124 65.9731C364.549 66.4201 362.367 67.1226 360.579 68.0805C358.791 69.0383 357.428 70.2517 356.492 71.7204C355.555 73.1892 355.087 74.9346 355.087 76.9568V89.9841C355.087 92.0063 355.555 93.7517 356.492 95.2205C357.428 96.6892 358.791 97.9026 360.579 98.8604C362.367 99.8183 364.549 100.531 367.124 101C369.7 101.447 372.627 101.67 375.905 101.67C377.863 101.67 379.875 101.457 381.94 101.032C384.026 100.585 386.037 99.9886 387.974 99.2436V104.161C387.974 104.842 387.815 105.438 387.495 105.949C387.197 106.481 386.772 106.917 386.218 107.258C385.686 107.62 385.058 107.886 384.334 108.056C383.611 108.226 382.823 108.312 381.971 108.312V113.867C384.228 113.867 386.239 113.601 388.006 113.069C389.773 112.537 391.263 111.792 392.476 110.834C393.69 109.897 394.616 108.78 395.254 107.481C395.893 106.183 396.212 104.778 396.212 103.267V67.7612H395.701C394.573 67.4206 393.243 67.1013 391.71 66.8033C390.199 66.5053 388.57 66.2498 386.825 66.037C385.101 65.8028 383.302 65.6219 381.429 65.4942ZM381.429 95.0608C380.45 95.2098 379.375 95.2843 378.204 95.2843C376.884 95.2843 375.596 95.2631 374.34 95.2205C373.106 95.1566 371.946 95.0396 370.86 94.8693C369.774 94.6777 368.774 94.4222 367.859 94.103C366.943 93.7624 366.156 93.3154 365.496 92.7619C364.857 92.2085 364.357 91.5273 363.995 90.7184C363.633 89.9096 363.452 88.941 363.452 87.8129V78.4256C363.452 76.7014 363.846 75.3604 364.634 74.4025C365.443 73.4233 366.518 72.6996 367.859 72.2313C369.2 71.763 370.764 71.4756 372.552 71.3692C374.34 71.2628 376.224 71.2095 378.204 71.2095C379.077 71.2095 379.971 71.2628 380.886 71.3692C381.801 71.4543 382.685 71.5821 383.536 71.7523C384.409 71.9014 385.218 72.0823 385.963 72.2952C386.729 72.508 387.4 72.7209 387.974 72.9337V92.7938C387.485 93.0493 386.91 93.326 386.25 93.624C385.611 93.9007 384.888 94.1668 384.079 94.4222C383.291 94.6777 382.408 94.8905 381.429 95.0608Z" fill="url(#paint1_linear_67_21)" fill-opacity="0.8"/>
<defs>
<linearGradient id="paint0_linear_67_21" x1="76.2053" y1="0" x2="76.2053" y2="152.376" gradientUnits="userSpaceOnUse">
<stop stop-color="#139CDA"/>
<stop offset="1" stop-color="#D42957"/>
</linearGradient>
<linearGradient id="paint1_linear_67_21" x1="205.097" y1="44.1431" x2="205.097" y2="113.867" gradientUnits="userSpaceOnUse">
<stop stop-color="#139CDA"/>
<stop offset="1" stop-color="#D42957"/>
</linearGradient>
</defs>
</svg>
