<svg width="189" height="39" viewBox="0 0 189 39" fill="none" xmlns="http://www.w3.org/2000/svg">
<rect width="38.2453" height="38.2453" rx="19.1226" fill="#ADA3FF" fill-opacity="0.3"/>
<rect x="11.0487" y="8.92383" width="16.4313" height="20.3975" rx="4.53277" fill="url(#paint0_linear_337_951)"/>
<rect x="13.8816" y="15.1565" width="5.66597" height="0.849895" rx="0.424948" fill="#D9D9D9"/>
<rect x="13.8816" y="18.5559" width="10.7653" height="0.566597" rx="0.283298" fill="#D9D9D9"/>
<rect x="13.8816" y="21.9556" width="10.7653" height="0.566597" rx="0.283298" fill="#D9D9D9"/>
<rect x="13.8816" y="20.2556" width="10.7653" height="0.566597" rx="0.283298" fill="#D9D9D9"/>
<path d="M53.168 12.9774H57.468V16.0922H49.6699V2.07617H53.168V2.10247H57.468V5.21713H53.168V12.9774Z" fill="#294997"/>
<path d="M53.9579 9.0959C53.9579 8.05065 54.7775 7.20337 55.7887 7.20337C56.7997 7.20337 57.6193 8.05065 57.6193 9.0959C57.6193 10.1412 56.7997 10.9884 55.7887 10.9884C54.7775 10.9884 53.9579 10.1411 53.9579 9.0959Z" fill="#D34CF5"/>
<path d="M66.4812 6.57844H69.7851V16.1168H66.4812V15.2918C65.6885 16.0244 64.6692 16.4652 63.5573 16.4652C61.03 16.4652 58.9813 14.1901 58.9813 11.3836C58.9813 8.5771 61.03 6.302 63.5573 6.302C64.6692 6.302 65.6885 6.74306 66.4812 7.47526V6.57844ZM66.4812 11.3836C66.4812 10.1758 65.6248 9.19648 64.4685 9.19648C63.3122 9.19648 62.3748 10.1758 62.3748 11.3836C62.3748 12.5916 63.3122 13.571 64.4685 13.571C65.6248 13.571 66.4812 12.5914 66.4812 11.3836Z" fill="#294997"/>
<path d="M79.2841 12.8835C79.2841 15.4919 76.8874 16.4645 74.8797 16.4645C72.872 16.4645 71.1792 15.3698 71.1792 15.3698L72.3707 12.9948C72.3707 12.9948 73.682 13.9597 74.9701 13.9597C75.5074 13.9597 75.9989 13.6285 75.9989 13.2362C75.9989 11.7589 71.8835 13.0392 71.8835 9.69242C71.8835 7.03677 74.2703 6.24146 76.0172 6.24146C76.9999 6.24146 78.258 6.4926 78.9954 6.85378L77.8941 9.04311C77.8941 9.04311 76.9285 8.56044 76.1253 8.56044C75.4367 8.56044 75.1146 8.90743 75.1146 9.24715C75.1146 10.3747 79.2843 9.51186 79.2841 12.8835Z" fill="#294997"/>
<path d="M91.9737 6.58521L87.8187 14.5839L87.0298 16.1042L84.7949 20.4063H81.4911L84.35 14.7493L79.9442 6.58521H83.8309L86.1377 11.2104L88.4757 6.58521H91.9737Z" fill="#294997"/>
<path d="M49.6849 35.7711V21.7551H53.1831V35.7711H49.6849Z" fill="#294997"/>
<path d="M65.0458 29.573V35.7838H61.7422V30.8134C61.7422 29.2804 61.2118 28.7334 60.2626 28.7334C58.8882 28.7334 58.5843 29.8231 58.5843 30.6065V35.7835H55.2805V26.2656H58.5843V27.4263C58.5843 27.4263 59.3898 26.0618 61.5081 26.0618C63.3939 26.0618 65.0458 27.1389 65.0458 29.573Z" fill="#294997"/>
<path d="M76.5725 26.2639L72.7828 35.7829L71.1795 35.7827L69.5767 35.7829L65.7871 26.2639H68.8966L71.1795 31.9997L73.463 26.2639H76.5725Z" fill="#294997"/>
<path d="M87.9944 31.0317C87.9944 33.8548 85.798 36.1689 82.4346 36.1689C79.0714 36.1689 76.8751 33.8548 76.8751 31.0317C76.8751 28.2086 79.0714 25.9202 82.4346 25.9202C85.798 25.9202 87.9944 28.2086 87.9944 31.0317ZM84.546 31.0444C84.546 29.8233 83.6007 28.8333 82.4346 28.8333C81.2687 28.8333 80.3235 29.8233 80.3235 31.0444C80.3235 32.2658 81.2687 33.2558 82.4346 33.2558C83.6007 33.2558 84.546 32.2658 84.546 31.0444Z" fill="#294997"/>
<path d="M89.3594 22.6164C89.3594 21.5713 90.179 20.7239 91.1899 20.7239C92.2011 20.7239 93.0207 21.5713 93.0207 22.6164C93.0207 23.6616 92.2011 24.5091 91.1899 24.5091C90.179 24.5091 89.3594 23.6616 89.3594 22.6164Z" fill="#D34CF5"/>
<path d="M89.5289 35.7894V26.2715H92.8328V35.7894H89.5289Z" fill="#294997"/>
<path d="M104.561 32.4907C104.561 33.4565 103.889 36.1637 99.6712 36.1637C95.6258 36.1637 94.4001 33.138 94.4001 31.0985C94.4001 29.5459 95.157 25.9404 99.5445 25.9404C102.878 25.9404 104.14 28.098 104.402 29.6132H101.461C101.461 28.8864 100.904 28.117 99.4805 28.117C98.6384 28.117 97.7313 28.9489 97.7313 30.7608C97.7313 31.8952 98.0715 33.7887 99.6891 33.7887C100.683 33.7887 101.332 33.2925 101.395 32.4907H104.561V32.4907Z" fill="#294997"/>
<path d="M112.666 32.3305H115.824C115.824 35.6611 112.295 36.14 110.836 36.14C109.376 36.14 105.657 35.227 105.657 31.0788C105.657 26.9306 108.869 25.9202 110.801 25.9202C113.786 25.9202 115.183 27.462 115.648 29.65C115.778 30.2574 115.836 30.9134 115.836 31.5985H108.958C108.958 33.1578 109.773 33.7691 110.945 33.7691C112.116 33.7691 112.666 33.1092 112.666 32.3305ZM109.038 29.65H112.74L112.719 29.6364C112.719 28.9356 112.19 28.0907 110.89 28.0907C109.592 28.0907 109.038 29.0213 109.038 29.65Z" fill="#294997"/>
<path d="M133.908 31.7078C133.908 33.2809 133.027 35.7711 129.215 35.7711H123.529V21.7551H128.718C129.905 21.7551 132.626 22.0465 132.626 25.381C132.626 26.7522 132.012 27.8385 131.128 28.3125C132.133 28.4316 133.908 29.1885 133.908 31.7078ZM130.334 31.4666C130.334 30.3241 129.315 29.9823 127.843 29.9823H127.027V32.9508H128.117C129.299 32.9508 130.334 32.6091 130.334 31.4666ZM127.027 27.2733H127.717C128.166 27.2733 129.377 27.1676 129.377 25.9191C129.377 24.6704 128.141 24.5647 127.717 24.5647H127.027V27.2733Z" fill="#294997"/>
<path d="M145.127 26.2639V32.4085C145.127 35.9406 141.503 36.1345 140.199 36.1345C138.896 36.1345 135.272 35.9406 135.272 32.4085V26.2639H138.575V31.8323C138.575 32.3194 138.762 33.3885 140.199 33.3885C141.637 33.3885 141.824 32.3194 141.824 31.8323V26.2639H145.127Z" fill="#294997"/>
<path d="M146.802 22.6164C146.802 21.5713 147.622 20.7239 148.633 20.7239C149.644 20.7239 150.463 21.5713 150.463 22.6164C150.463 23.6616 149.644 24.5091 148.633 24.5091C147.622 24.5091 146.802 23.6616 146.802 22.6164Z" fill="#D34CF5"/>
<path d="M146.972 35.7894V26.2715H150.276V35.7894H146.972Z" fill="#294997"/>
<path d="M152.267 35.7937V20.8047H155.57V35.7937H152.267Z" fill="#294997"/>
<path d="M164.626 20.8047H167.93V35.7937H164.626V34.9687C163.833 35.7013 162.814 36.1421 161.702 36.1421C159.174 36.1421 157.126 33.867 157.126 31.0605C157.126 28.254 159.174 25.9789 161.702 25.9789C162.814 25.9789 163.833 26.42 164.626 27.1522V20.8047ZM164.626 31.0605C164.626 29.8527 163.769 28.8734 162.613 28.8734C161.457 28.8734 160.519 29.8527 160.519 31.0605C160.519 32.2685 161.457 33.2479 162.613 33.2479C163.769 33.2479 164.626 32.2683 164.626 31.0605Z" fill="#294997"/>
<path d="M176.535 32.3305H179.693C179.693 35.6611 176.164 36.14 174.705 36.14C173.245 36.14 169.526 35.227 169.526 31.0788C169.526 26.9306 172.738 25.9202 174.67 25.9202C177.655 25.9202 179.052 27.462 179.517 29.65C179.647 30.2574 179.705 30.9134 179.705 31.5985H172.828C172.828 33.1578 173.642 33.7691 174.814 33.7691C175.985 33.7691 176.535 33.1092 176.535 32.3305ZM172.907 29.65H176.609L176.588 29.6364C176.588 28.9356 176.059 28.0907 174.759 28.0907C173.461 28.0907 172.907 29.0213 172.907 29.65Z" fill="#294997"/>
<path d="M181.363 35.7862V26.2681H184.666V35.7862H181.363Z" fill="#294997"/>
<path d="M185.339 28.1564C185.339 27.1114 186.158 26.2639 187.169 26.2639C188.18 26.2639 189 27.1114 189 28.1564C189 29.2017 188.18 30.0489 187.169 30.0489C186.158 30.0489 185.339 29.2017 185.339 28.1564Z" fill="#D34CF5"/>
<defs>
<linearGradient id="paint0_linear_337_951" x1="13.0568" y1="9.79249" x2="25.0255" y2="28.8336" gradientUnits="userSpaceOnUse">
<stop offset="0.413697" stop-color="#7864FF"/>
<stop offset="1" stop-color="#D34CF5"/>
</linearGradient>
</defs>
</svg>
